<?xml version="1.0" encoding="utf-8"?>
<!-- Generator: Adobe Illustrator 24.1.1, SVG Export Plug-In . SVG Version: 6.00 Build 0)  -->
<svg version="1.1" id="Layer_1" xmlns="http://www.w3.org/2000/svg" xmlns:xlink="http://www.w3.org/1999/xlink" x="0px" y="0px"
	 viewBox="0 0 322 469.4" style="enable-background:new 0 0 322 469.4;" xml:space="preserve">
<style type="text/css">
	.st0{fill:#FFCC02;}
	.st1{fill:none;}
	.st2{fill:#D5CFB6;}
	.st3{fill:#F6F1E1;}
	.st4{fill:#FFFFFF;}
	.st5{fill:#BA9053;}
	.st6{fill:#F8C071;}
	.st7{fill:#D8B57B;}
	.st8{fill:#FDD099;}
	.st9{fill:#353025;}
	.st10{fill:#FDDFC1;}
	.st11{fill:#F1A56B;}
	.st12{fill:#333333;}
	.st13{fill:none;stroke:#B6A9A0;stroke-miterlimit:10;}
	.st14{fill:#FFF3EA;}
	.st15{fill:#D2A090;}
	.st16{fill:#BBBDBF;}
	.st17{opacity:0.12;fill:#ECDFDA;enable-background:new    ;}
	.st18{opacity:0.25;}
	.st19{fill:#A97454;}
	.st20{opacity:0.14;fill:#A97454;enable-background:new    ;}
	.st21{fill:#83472B;}
	.st22{fill:#F3806F;}
	.st23{opacity:0.2;fill:#E3D9D0;enable-background:new    ;}
	.st24{fill:#F1695D;}
	.st25{fill:#EE3D4B;}
	.st26{fill:#815842;}
	.st27{fill:#FFF8EC;}
	.st28{fill:#441C0D;}
	.st29{clip-path:url(#SVGID_2_);}
	.st30{fill:#3D4766;}
	.st31{fill:#4762B2;}
	.st32{opacity:0.16;fill:#231F20;enable-background:new    ;}
	.st33{opacity:0.31;}
	.st34{fill:#804A0D;}
</style>
<symbol  id="Butterfly" viewBox="-39.8 -36 79.6 72.1">
	<path class="st0" d="M0,24.3C1.1,24.3,2,17.7,2,9.6S1.1-5,0-5S-1.9,1.5-1.9,9.6S-1,24.3,0,24.3z"/>
	<path class="st0" d="M-1.7,0.7c0,0-3.3-18.6-29.5-35.3c0,0-11.9-6.8-7.3,11.2c2,4.1,2.6,8.7,1.8,13.2c0,0-0.9,8,2.8,10.1
		c0,0,3.4,2.4,0,4.6c0,0-6.7,5.8-4.3,14.3c0,0,0.5,3.9,2.7,4.3c0,0,0.1,2.7,1.8,3.3c0,0,0.6,2.3,2.7,2.1c0,0,0.9,4,4.6,3.3
		c0.8,1,2.1,1.5,3.4,1.2c0,0,2.7,2.7,5.5,0.6c0,0,15.2-11,14-18C-3.5,15.7,1.4,10.2-1.7,0.7z"/>
	<path class="st0" d="M-1.6,1.3c0,0-5.3-24.4-34.2-36.7c0,0-6.1,1.8-2.9,11.9c0,0,3,4.1,2.2,12.3c0,0-1.7,9.7,3.7,12.1
		c0,0,2.3,1.7-2.8,6.2c0,0-7.4,11.9,0.1,16c0,0,0.6,4.8,4.4,5.5c0,0,2,4.9,4.9,3.3c0,0,1.7,2.5,3.1,1.1c0,0,2.5,4,7.1-0.1
		c0,0-29.7-10.7-13.7-27.2c0,0,3.7-2.7-0.9-9.6c0,0-2.3-3.2-1.4-8.7c0,0,0.5-10.1-4.1-14.6c0,0-2.7-5.9,2.8-4.6
		C-33.3-31.8-17.6-29.8-1.6,1.3z"/>
	<path class="st0" d="M-2.6,4.6c0,0-2.4-12.1-17.6-21.2c0,0-7.3-4-4.6,6.8c1.2,2.4,1.6,5.2,1.3,7.9c0,0-0.9,4.9,1.6,6
		c0,0,2,1.5,0,2.7c0,0-4,3.5-2.6,8.6c0,0,0,2.4,1.6,2.6c0,0-0.4,1.7,1.1,2c0,0.7,0.6,1.3,1.3,1.3c0.1,0,0.2,0,0.3,0
		c0.1,1.2,1.1,2.1,2.4,2.1c0.1,0,0.2,0,0.4-0.1c0.5,0.6,1.2,0.9,2,0.7c0,0,1.6,1.6,3.3,0.4c0,0,9.2-6.6,8.4-10.8
		C-3.5,13.5-0.8,10.2-2.6,4.6z"/>
	<path class="st0" d="M-0.9,6.5c0,0-17.1-13.1-18.8-19.8c0,0-4.6-18.6-16.8-22.3l-0.2-0.4C-24.6-32.3-20-13.7-20-13.7
		C-18.2-7-1.1,6.1-1.1,6.1L-0.9,6.5z"/>
	<path class="st0" d="M-19-11.3c0,0-15.1-4.7-17-2.3l-0.2-0.4c1.8-2.4,16.4,2.1,16.4,2.1L-19-11.3z"/>
	<path class="st0" d="M-21.3-17.3c0,0-10.5-5.8-16.3-4l-0.2-0.4c5.8-1.8,16.3,4,16.3,4L-21.3-17.3z"/>
	<path class="st0" d="M-23.8-23c0,0-11.9-10.4-15.9-8v-0.3c4-2.4,15.6,7.9,15.6,7.9L-23.8-23z"/>
	<path class="st0" d="M-4.9,2.8c0,0-3.4-18-22.3-31.4l-0.2-0.4C-8.5-15.6-5.1,2.4-5.1,2.4L-4.9,2.8z"/>
	<path class="st0" d="M-14.5-5.7c0,0-22.1-4.9-22.1-2.2l-0.2-0.4c0-2.8,21.3,2.1,21.3,2.1L-14.5-5.7z"/>
	<path class="st0" d="M-4,4c0,0-7,3-12.2-1.2c0,0-4.9-4.6-18.6-4L-35-1.6c13.7-0.6,18.6,4,18.6,4c5.2,4.3,12.2,1.2,12.2,1.2L-4,4z"
		/>
	<path class="st0" d="M-1.8,6.5c0,0-8.5,3.3-13.4,0c0,0-7.6-7.3-17.1-4.3l-0.2-0.4c9.4-3,17.1,4.3,17.1,4.3c4.9,3.3,13.4,0,13.4,0
		L-1.8,6.5z"/>
	<path class="st0" d="M-15.2,6.5c0,0-0.6,4.6-7,4.6c0,0-14.3-0.3-15.9,4.6l-0.2-0.4c1.5-4.9,15.8-4.6,15.8-4.6c6.4,0,7-4.6,7-4.6
		L-15.2,6.5z"/>
	<path class="st0" d="M-1.2,7.7c0,0-18.3,11.3-23.2,7.3c0,0-5.2-2.4-13.1,6.1l-0.3-0.4c7.9-8.5,13.1-6.1,13.1-6.1
		c4.9,4,23.2-7.3,23.2-7.3L-1.2,7.7z"/>
	<path class="st0" d="M-22.6,15.6c0,0-11,8.8-11,11l-0.2-0.4c0-2.1,11-10.7,11-10.7L-22.6,15.6z"/>
	<path class="st0" d="M-16.7,15c0,0-14.4,10.1-14.1,13.8l-0.2-0.4c-0.3-3.7,14.1-13.5,14.1-13.5L-16.7,15z"/>
	<path class="st0" d="M-11.3,13.1c0,0-14.9,15.9-14.9,18.1l-0.2-0.4c0-2.1,14.9-18.1,14.9-18.1L-11.3,13.1z"/>
	<path class="st0" d="M-5.2,9.8c0,0-6.1,10.7-9.1,11.6c0,0-9.8,11-8.5,11.9l-0.2-0.4C-24.3,32-14.6,21-14.6,21
		c3-0.9,9.1-11.6,9.1-11.6L-5.2,9.8z"/>
	<path class="st0" d="M-3.4,9c0,0-1.2,8.8-4,10.7c0,0-5.2,6.7-5.5,9.8l-0.2-0.4c0.3-3,5.5-9.8,5.5-9.8c2.7-1.8,4-10.7,4-10.7L-3.4,9
		z"/>
	<path class="st0" d="M-15.9,7.9c0,0-9.1,1.3-11.6-0.8c0,0-5.5-2.4-8.2,0.3L-35.9,7c2.8-2.7,8.2-0.3,8.2-0.3
		C-25.2,8.8-17,7.6-17,7.6L-15.9,7.9z"/>
	<path class="st0" d="M-38.1-28.5c0.2,0,0.4-0.8,0.4-1.7c0-1-0.2-1.7-0.4-1.7c-0.2,0-0.4,0.8-0.4,1.7S-38.3-28.5-38.1-28.5z"/>
	<path class="st0" d="M-35.6-20.9c0.5,0,0.9-0.4,0.9-0.9c0-0.5-0.4-0.9-0.9-0.9s-0.9,0.4-0.9,0.9c0,0,0,0,0,0
		C-36.5-21.2-36.1-20.9-35.6-20.9z"/>
	<path class="st0" d="M-33-13.9c0.8,0,1.5-0.3,1.5-0.6s-0.7-0.6-1.5-0.6c-0.8,0-1.5,0.3-1.5,0.6S-33.9-13.9-33-13.9z"/>
	<path class="st0" d="M-32.4-3.8c0.5,0.1,0.9-0.2,1-0.7c0.1-0.5-0.2-0.9-0.7-1c-0.1,0-0.3,0-0.4,0c-0.5-0.1-0.9,0.2-1,0.7
		c-0.1,0.5,0.2,0.9,0.7,1C-32.7-3.8-32.6-3.8-32.4-3.8z"/>
	<path class="st0" d="M-32.1,5.7c0.6,0,1.1-0.5,1.1-1.1c0-0.6-0.5-1.1-1.1-1.1c-0.6,0-1.1,0.5-1.1,1.1S-32.7,5.7-32.1,5.7
		C-32.1,5.7-32.1,5.7-32.1,5.7z"/>
	<path class="st0" d="M-35.3,14c0.2-0.8,0.3-1.6,0.2-2.4c0.1-0.8,0-1.6-0.2-2.4c-0.2,0.8-0.3,1.6-0.2,2.4
		C-35.6,12.4-35.5,13.2-35.3,14z"/>
	<path class="st0" d="M-35,20c0.5,0,0.9-0.4,0.9-0.9c0-0.5-0.4-0.9-0.9-0.9c-0.5,0-0.9,0.4-0.9,0.9c0,0,0,0,0,0
		C-35.9,19.6-35.5,20-35,20C-35,20-35,20-35,20z"/>
	<path class="st0" d="M-31.1,28.2c-0.2-0.7-0.3-1.3-0.3-2c0-0.6,0.2-0.1,0.3-0.1c0.1,0.3,0.1,0.7,0.1,1C-31,27.5-31,27.8-31.1,28.2z
		"/>
	<path class="st0" d="M-20.1,33.6c0.1,0,0.2-0.5,0.2-1.1s-0.1-1.1-0.2-1.1s-0.2,0.5-0.2,1.1S-20.3,33.6-20.1,33.6z"/>
	<path class="st0" d="M-33-32.6c0.6,0,1.1-0.2,1.1-0.4c0-0.2-0.5-0.4-1.1-0.4s-1.1,0.2-1.1,0.4S-33.6-32.6-33-32.6z"/>
	<path class="st0" d="M-19.4-22.6c0.4,0,0.6-0.6,0.6-1.3c0-0.7-0.3-1.3-0.6-1.3s-0.6,0.6-0.6,1.3C-20-23.1-19.8-22.6-19.4-22.6z"/>
	<path class="st0" d="M-15.1-17.5c0.1,0,0.2-0.4,0.2-0.9s-0.1-0.9-0.2-0.9s-0.2,0.4-0.2,0.9S-15.2-17.5-15.1-17.5z"/>
	<path class="st0" d="M-26.8,29.8c0.6-0.1,1-0.7,0.8-1.3c-0.1-0.4-0.4-0.8-0.8-0.8c-0.6,0.1-1,0.7-0.8,1.3
		C-27.5,29.4-27.2,29.7-26.8,29.8z"/>
	<path class="st0" d="M-0.9,2.1c0,0-4-19.7-29.4-35c0,0-12.1-7.1-7.5,10.9c2,4.1,2.7,8.6,2.1,13.1c0,0-1.5,8.2,2.8,10.1
		c0,0,3.4,2.4,0,4.6c0,0-6.7,5.8-4.3,14.3c0,0,0,4,2.7,4.3c0,0-0.6,2.7,1.8,3.3c0,1.2,1,2.2,2.2,2.2c0.2,0,0.4,0,0.6-0.1
		c0.1,2,1.9,3.6,4,3.5c0.2,0,0.4,0,0.6-0.1c0.8,1,2.1,1.5,3.4,1.2c0,0,2.7,2.7,5.5,0.6c0,0,15.2-11,14-18C-2.5,17,2.1,11.6-0.9,2.1
		l-0.9-1.6c3.1,9.4-1.5,15-1.5,15c1.2,7-14,18-14,18c-2.7,2.1-5.5-0.6-5.5-0.6c-1.3,0.3-2.6-0.2-3.4-1.2c-2,0.5-4-0.8-4.5-2.8
		c0-0.2-0.1-0.4-0.1-0.6c-1.2,0.3-2.4-0.4-2.7-1.6c0-0.2-0.1-0.4-0.1-0.6c-2.4-0.6-1.8-3.4-1.8-3.4c-2.8-0.3-3.1-4.2-3.1-4.2
		c-2.5-8.5,4.6-14.4,4.6-14.4c3.4-2.1,0-4.6,0-4.6c-4.3-1.8-2.7-10.1-2.7-10.1c0.6-4.5-0.2-9-2.2-13.1c-4.5-18,7.6-11.3,7.6-11.3
		C-5.8-19.6-1.9,0.5-1.9,0.5L-0.9,2.1z"/>
	<path class="st0" d="M1.7,1c0,0,3.3-18.7,29.5-35.3c0,0,11.8-6.8,7.3,11.2c-2,4.1-2.6,8.7-1.8,13.2c0,0,0.9,8-2.7,10
		c0,0-3.3,2.4,0,4.6c0,0,6.7,5.8,4.3,14.3c0,0-0.5,3.9-2.7,4.3c0,0-0.1,2.7-1.8,3.3c0,0-0.6,2.3-2.8,2.1c0,0-0.9,4-4.6,3.4
		c-0.8,1-2.1,1.5-3.3,1.2c0,0-2.7,2.8-5.5,0.6c0,0-15.2-11-14-18C3.5,16-1.3,10.4,1.7,1z"/>
	<path class="st0" d="M1.7,1.5c0,0,5.3-24.4,34.2-36.7c0,0,6.1,1.9,2.9,11.9c0,0-3,4.1-2.2,12.3c0,0,1.7,9.6-3.7,12.1
		c0,0-2.3,1.7,2.8,6.2c0,0,7.4,11.9-0.2,16c0,0-0.6,4.8-4.4,5.4c0,0-2,4.9-4.9,3.3c0,0-1.7,2.5-3.1,1.1c0,0-2.5,4.1-7.1-0.1
		c0,0,29.7-10.7,13.7-27.1c0,0-3.7-2.7,0.9-9.6c0,0,2.3-3.2,1.4-8.7c0,0-0.5-10,4.1-14.6c0,0,2.7-5.9-2.8-4.6
		C33.4-31.6,17.7-29.6,1.7,1.5z"/>
	<path class="st0" d="M2.7,4.7c0,0,2.4-12.1,17.6-21.2c0,0,7.3-4,4.6,6.8c-1.2,2.4-1.6,5.2-1.3,7.9c0,0,0.9,4.9-1.6,6
		c0,0-2,1.5,0,2.7c0,0,4,3.5,2.6,8.6c0,0,0,2.4-1.7,2.6c0,0,0.4,1.6-1.1,2c0,0.7-0.6,1.3-1.3,1.3c-0.1,0-0.2,0-0.3,0
		c-0.1,1.2-1.2,2.1-2.4,2.1c-0.1,0-0.2,0-0.3-0.1c-0.5,0.6-1.2,0.9-2,0.7c0,0-1.7,1.7-3.3,0.4c0,0-9.1-6.6-8.4-10.8
		C3.6,13.7,0.8,10.4,2.7,4.7z"/>
	<path class="st0" d="M0.9,6.7c0,0,17.1-13.1,18.9-19.8c0,0,4.6-18.6,16.8-22.3l0.2-0.4c-12.2,3.7-16.8,22.3-16.8,22.3
		C18.2-6.8,1.2,6.3,1.2,6.3L0.9,6.7z"/>
	<path class="st0" d="M19-11.1c0,0,15.1-4.7,17-2.3l0.2-0.4c-1.8-2.4-16.5,2.1-16.5,2.1L19-11.1z"/>
	<path class="st0" d="M21.4-17.1c0,0,10.5-5.8,16.3-4l0.2-0.4c-5.8-1.8-16.3,4-16.3,4L21.4-17.1z"/>
	<path class="st0" d="M23.8-22.9c0,0,11.9-10.4,15.8-7.9v-0.3c-4-2.4-15.6,7.9-15.6,7.9L23.8-22.9z"/>
	<path class="st0" d="M4.9,3c0,0,3.3-17.9,22.3-31.4l0.2-0.4C8.5-15.4,5.1,2.6,5.1,2.6L4.9,3z"/>
	<path class="st0" d="M14.5-5.5c0,0,22.1-4.9,22.1-2.2l0.2-0.4c0-2.7-21.3,2.1-21.3,2.1L14.5-5.5z"/>
	<path class="st0" d="M4,4.2c0,0,7,3.1,12.2-1.3c0,0,4.9-4.6,18.6-4l0.2-0.4c-13.7-0.6-18.6,4-18.6,4C11.2,6.9,4.2,3.8,4.2,3.8
		L4,4.2z"/>
	<path class="st0" d="M1.9,6.7c0,0,8.5,3.3,13.4,0c0,0,7.6-7.3,17.1-4.3L32.6,2c-9.4-3-17.1,4.3-17.1,4.3c-4.9,3.3-13.4,0-13.4,0
		L1.9,6.7z"/>
	<path class="st0" d="M15.2,6.7c0,0,0.6,4.6,7,4.6c0,0,14.3-0.3,15.8,4.6l0.2-0.4c-1.5-4.9-15.8-4.6-15.8-4.6c-6.4,0-7-4.6-7-4.6
		L15.2,6.7z"/>
	<path class="st0" d="M1.2,7.9c0,0,18.3,11.3,23.2,7.3c0,0,5.2-2.4,13.1,6.1l0.2-0.4c-7.9-8.5-13.1-6.1-13.1-6.1
		c-4.9,4-23.2-7.3-23.2-7.3L1.2,7.9z"/>
	<path class="st0" d="M22.6,15.8c0,0,11,8.8,11,11l0.2-0.4c0-2.1-11-10.7-11-10.7L22.6,15.8z"/>
	<path class="st0" d="M16.7,15.1c0,0,14.4,10.1,14.1,13.8l0.2-0.4C31.3,24.9,16.9,15,16.9,15L16.7,15.1z"/>
	<path class="st0" d="M11.3,13.3c0,0,14.9,15.9,14.9,18.1l0.2-0.4c0-2.1-14.9-18.1-14.9-18.1L11.3,13.3z"/>
	<path class="st0" d="M5.2,10c0,0,6.1,10.7,9.1,11.6c0,0,9.8,11,8.5,11.9l0.2-0.4c1.2-0.9-8.5-11.9-8.5-11.9
		c-3-0.9-9.1-11.6-9.1-11.6L5.2,10z"/>
	<path class="st0" d="M3.4,9.1c0,0,1.2,8.8,4,10.7c0,0,5.2,6.7,5.5,9.8l0.2-0.4c-0.3-3-5.5-9.8-5.5-9.8c-2.7-1.8-4-10.7-4-10.7
		L3.4,9.1z"/>
	<path class="st0" d="M15.9,8.1c0,0,9.1,1.3,11.6-0.8c0,0,5.5-2.4,8.2,0.3l0.2-0.4c-2.8-2.7-8.2-0.3-8.2-0.3C25.3,9,17,7.8,17,7.8
		L15.9,8.1z"/>
	<path class="st0" d="M38.1-28.4c-0.2,0-0.4-0.8-0.4-1.7c0-0.9,0.2-1.7,0.4-1.7s0.4,0.8,0.4,1.7C38.5-29.1,38.3-28.4,38.1-28.4z"/>
	<path class="st0" d="M35.7-20.7c-0.5,0-0.9-0.4-0.9-0.9c0-0.5,0.4-0.9,0.9-0.9c0.5,0,0.9,0.4,0.9,0.9
		C36.5-21.1,36.1-20.7,35.7-20.7C35.7-20.7,35.7-20.7,35.7-20.7z"/>
	<path class="st0" d="M33.1-13.7c-0.8,0-1.5-0.3-1.5-0.6s0.7-0.6,1.5-0.6s1.5,0.3,1.5,0.6S33.9-13.7,33.1-13.7z"/>
	<path class="st0" d="M32.5-3.6c-0.5-0.1-0.8-0.6-0.7-1.1c0.1-0.5,0.6-0.8,1.1-0.7c0.4,0.1,0.7,0.4,0.7,0.9
		C33.5-3.9,33-3.6,32.5-3.6z"/>
	<path class="st0" d="M32.1,5.9c-0.6,0-1.1-0.5-1.1-1.1c0-0.6,0.5-1.1,1.1-1.1c0.6,0,1.1,0.5,1.1,1.1C33.2,5.4,32.8,5.9,32.1,5.9
		C32.2,5.9,32.2,5.9,32.1,5.9z"/>
	<path class="st0" d="M35.3,14.2c-0.2-0.8-0.3-1.6-0.2-2.4c-0.1-0.8,0-1.6,0.2-2.4c0.2,0.8,0.3,1.6,0.2,2.4
		C35.6,12.6,35.5,13.4,35.3,14.2z"/>
	<path class="st0" d="M35,20.2c-0.5,0-0.9-0.4-0.9-0.9s0.4-0.9,0.9-0.9c0.5,0,0.9,0.4,0.9,0.9C35.9,19.8,35.5,20.1,35,20.2
		C35.1,20.2,35,20.2,35,20.2z"/>
	<path class="st0" d="M31.1,28.4c0.2-0.7,0.3-1.3,0.3-2c0-0.6-0.2-0.1-0.3-0.1c-0.1,0.3-0.1,0.7-0.1,1C31,27.6,31,28,31.1,28.4z"/>
	<path class="st0" d="M20.2,33.8c-0.1,0-0.2-0.5-0.2-1.1s0.1-1.1,0.2-1.1s0.2,0.5,0.2,1.1S20.3,33.8,20.2,33.8z"/>
	<path class="st0" d="M33.1-32.4c-0.6,0-1.1-0.2-1.1-0.4c0-0.2,0.5-0.4,1.1-0.4s1.1,0.2,1.1,0.4S33.7-32.4,33.1-32.4z"/>
	<path class="st0" d="M19.4-22.4c-0.4,0-0.7-0.6-0.7-1.3c0-0.7,0.3-1.3,0.7-1.3s0.7,0.6,0.7,1.3C20.1-22.9,19.8-22.4,19.4-22.4z"/>
	<path class="st0" d="M15.1-17.3c-0.1,0-0.2-0.4-0.2-0.9s0.1-0.9,0.2-0.9s0.2,0.4,0.2,0.9S15.2-17.3,15.1-17.3z"/>
	<path class="st0" d="M26.8,30c-0.6,0.1-1.2-0.2-1.3-0.8c-0.1-0.6,0.2-1.2,0.8-1.3c0.6-0.1,1.2,0.2,1.3,0.8c0,0.1,0,0.2,0,0.3
		C27.7,29.4,27.3,29.9,26.8,30z"/>
	<path class="st0" d="M1,2.3c0,0,4-19.7,29.3-35c0,0,12.1-7.1,7.5,10.9c-2,4.1-2.7,8.6-2.1,13.1c0,0,1.5,8.3-2.7,10.1
		c0,0-3.3,2.4,0,4.6c0,0,6.7,5.8,4.3,14.3c0,0,0,4-2.7,4.3c0,0,0.6,2.8-1.8,3.4c0,1.2-1,2.2-2.2,2.2c-0.2,0-0.4,0-0.5-0.1
		c-0.1,2-1.9,3.6-4,3.4c-0.2,0-0.4,0-0.6-0.1c-0.8,1-2.1,1.5-3.3,1.2c0,0-2.7,2.7-5.5,0.6c0,0-15.2-11-14-18
		C2.5,17.2-2.1,11.7,1,2.3l0.9-1.6c-3,9.5,1.5,14.9,1.5,14.9c-1.2,7,14,18,14,18c2.7,2.1,5.5-0.6,5.5-0.6c1.2,0.3,2.5-0.2,3.3-1.2
		c2,0.5,4-0.8,4.5-2.8c0-0.2,0.1-0.4,0.1-0.6c1.2,0.3,2.4-0.4,2.7-1.6c0-0.2,0.1-0.4,0.1-0.6c2.4-0.6,1.8-3.3,1.8-3.3
		c2.7-0.3,3.1-4.2,3.1-4.2c2.4-8.5-4.6-14.4-4.6-14.4c-3.3-2.1,0-4.6,0-4.6c4.3-1.8,2.8-10.1,2.8-10.1c-0.6-4.5,0.2-9,2.1-13.1
		c4.6-18-7.6-11.3-7.6-11.3C5.9-19.4,1.9,0.7,1.9,0.7L1,2.3z"/>
	<path class="st0" d="M0.4-4.4c0-1.3,0.1-2.6,0.5-3.8C1.1-9,1.4-9.7,1.8-10.3c1.2-2.2,3.4-3.3,5.2-4.7c0,0,0-0.1,0-0.1c0,0,0,0,0,0
		c0,0-0.1,0-0.1,0c0,0,0,0,0,0c-2,1.4-4.1,2.6-5.4,4.8C0.5-8.6,0.1-6.4,0.4-4.4L0.4-4.4L0.4-4.4L0.4-4.4z"/>
	<path class="st0" d="M-0.3-4.4c0-1.3-0.1-2.6-0.4-3.8C-1-9-1.4-9.7-1.8-10.3C-3-12.5-5.1-13.6-7-15.1c0,0,0-0.1,0-0.1c0,0,0,0,0,0
		c0,0,0.1,0,0.1,0c0,0,0,0,0,0c2,1.4,4.1,2.5,5.4,4.8C-0.5-8.6,0-6.5-0.3-4.4L-0.3-4.4L-0.3-4.4L-0.3-4.4z"/>
</symbol>
<symbol  id="Daisy" viewBox="-23.7 -23.7 47.4 47.4">
	<rect x="-21.4" y="-21.6" class="st1" width="43" height="43.1"/>
	<path class="st2" d="M22.3-2.8C18.6-4.9,8-1.8,4.2-0.6c0,0.2,0.1,0.5,0.1,0.7c0,0.3,0,0.5-0.1,0.8c12.8,3.6,18,0.2,18,0.2
		C25.5-0.8,22.3-2.8,22.3-2.8z"/>
	<path class="st3" d="M20.3-2.4C17-4.2,7.6-1.6,4.2-0.6c0,0.2,0.1,0.4,0.1,0.6c0,0.2,0,0.5-0.1,0.7c11.4,3,16,0.2,16,0.2
		C23.1-0.7,20.3-2.4,20.3-2.4z"/>
	<path class="st4" d="M19.6-1.2C16.4-2.1,7.4-0.8,4.2-0.3c0,0.1,0.1,0.2,0.1,0.3c0,0.1,0,0.2-0.1,0.3c10.9,1.5,15.4,0.1,15.4,0.1
		C22.3-0.4,19.6-1.2,19.6-1.2z"/>
	<path class="st2" d="M13.8-17.7C9.7-16.5,4.3-6.9,2.5-3.4c0.2,0.1,0.4,0.3,0.6,0.5c0.2,0.2,0.4,0.4,0.5,0.6
		c11.6-6.5,12.9-12.6,12.9-12.6C17.5-18.5,13.8-17.7,13.8-17.7z"/>
	<path class="st3" d="M12.6-16C9.1-14.9,4.2-6.4,2.5-3.4C2.7-3.3,2.9-3.2,3-3c0.2,0.2,0.3,0.3,0.4,0.5c10.1-5.9,11.5-11.2,11.5-11.2
		C15.8-16.8,12.6-16,12.6-16z"/>
	<path class="st4" d="M13-14.7C10.2-13,4.7-5.8,2.7-3.2C2.8-3.1,2.9-3.1,3-3c0.1,0.1,0.1,0.2,0.2,0.3c8.8-6.6,11-10.8,11-10.8
		C15.6-16,13-14.7,13-14.7z"/>
	<path class="st2" d="M-2.7-22.3C-4.8-18.6-1.8-7.9-0.6-4.2c0.2,0,0.5-0.1,0.7-0.1c0.3,0,0.5,0,0.8,0.1c3.6-12.8,0.3-18,0.3-18
		C-0.7-25.5-2.7-22.3-2.7-22.3z"/>
	<path class="st3" d="M-2.4-20.3C-4.1-17-1.6-7.5-0.6-4.2c0.2,0,0.4-0.1,0.6-0.1c0.2,0,0.5,0,0.7,0.1c3-11.3,0.3-16,0.3-16
		C-0.7-23.1-2.4-20.3-2.4-20.3z"/>
	<path class="st4" d="M-1.1-19.6C-2-16.4-0.8-7.4-0.3-4.2c0.1,0,0.2-0.1,0.3-0.1c0.1,0,0.2,0,0.3,0.1c1.5-10.9,0.1-15.4,0.1-15.4
		C-0.3-22.3-1.1-19.6-1.1-19.6z"/>
	<path class="st2" d="M-17.7-13.9C-16.6-9.8-6.9-4.4-3.4-2.6C-3.3-2.8-3.1-2.9-3-3.1c0.2-0.2,0.4-0.4,0.7-0.6
		c-6.4-11.6-12.5-12.9-12.5-12.9C-18.5-17.6-17.7-13.9-17.7-13.9z"/>
	<path class="st3" d="M-16-12.7c1.1,3.6,9.5,8.5,12.6,10.2C-3.3-2.7-3.2-2.8-3-3c0.2-0.2,0.3-0.3,0.5-0.4C-8.4-13.6-13.6-15-13.6-15
		C-16.8-15.9-16-12.7-16-12.7z"/>
	<path class="st4" d="M-14.7-13.1c1.6,2.9,8.9,8.4,11.5,10.3C-3.2-2.9-3.1-3-3.1-3C-3-3.1-2.9-3.2-2.8-3.2c-6.6-8.8-10.7-11-10.7-11
		C-16-15.6-14.7-13.1-14.7-13.1z"/>
	<path class="st2" d="M-22.3,2.6c3.7,2.1,14.4-0.9,18.1-2c0-0.2-0.1-0.5-0.1-0.7c0-0.3,0-0.5,0.1-0.8c-12.8-3.7-18-0.4-18-0.4
		C-25.5,0.5-22.3,2.6-22.3,2.6z"/>
	<path class="st3" d="M-20.3,2.3C-17,4-7.5,1.5-4.2,0.6c0-0.2-0.1-0.4-0.1-0.6c0-0.2,0-0.4,0.1-0.7c-11.3-3-16-0.3-16-0.3
		C-23.1,0.5-20.3,2.3-20.3,2.3z"/>
	<path class="st4" d="M-19.6,1c3.2,0.9,12.2-0.3,15.4-0.8c0-0.1-0.1-0.2-0.1-0.3c0-0.1,0-0.2,0.1-0.3c-10.9-1.5-15.4-0.2-15.4-0.2
		C-22.4,0.2-19.6,1-19.6,1z"/>
	<path class="st2" d="M-14,17.6C-9.8,16.5-4.4,6.8-2.6,3.4C-2.8,3.2-3,3.1-3.1,2.9c-0.2-0.2-0.4-0.4-0.5-0.6
		c-11.6,6.3-13,12.4-13,12.4C-17.7,18.4-14,17.6-14,17.6z"/>
	<path class="st3" d="M-12.8,15.9c3.6-1.1,8.5-9.5,10.2-12.5C-2.7,3.3-2.9,3.1-3,3c-0.2-0.2-0.3-0.3-0.4-0.5
		c-10.2,5.9-11.6,11.1-11.6,11.1C-16,16.7-12.8,15.9-12.8,15.9z"/>
	<path class="st4" d="M-13.2,14.6C-10.3,13-4.7,5.7-2.8,3.2C-2.9,3.1-3,3.1-3,3c-0.1-0.1-0.1-0.2-0.2-0.3c-8.8,6.6-11,10.7-11,10.7
		C-15.7,15.9-13.2,14.6-13.2,14.6z"/>
	<path class="st2" d="M2.5,22.3C4.7,18.6,1.7,8,0.5,4.2C0.3,4.2,0,4.3-0.2,4.3c-0.3,0-0.5,0-0.8-0.1c-3.7,12.7-0.5,18-0.5,18
		C0.4,25.5,2.5,22.3,2.5,22.3z"/>
	<path class="st3" d="M2.2,20.3C3.9,17,1.5,7.6,0.6,4.2c-0.2,0-0.4,0.1-0.6,0.1c-0.2,0-0.5,0-0.7-0.1c-3.1,11.3-0.4,16-0.4,16
		C0.4,23.1,2.2,20.3,2.2,20.3z"/>
	<path class="st4" d="M1,19.6C1.8,16.4,0.7,7.4,0.2,4.2C0.1,4.2,0,4.3-0.1,4.3c-0.1,0-0.2,0-0.3-0.1C-2,15.1-0.7,19.6-0.7,19.6
		C0.1,22.3,1,19.6,1,19.6z"/>
	<path class="st2" d="M17.5,14C16.4,9.9,6.8,4.4,3.4,2.6C3.2,2.8,3.1,3,2.9,3.1C2.7,3.3,2.5,3.5,2.2,3.7
		c6.3,11.7,12.4,13.1,12.4,13.1C18.3,17.7,17.5,14,17.5,14z"/>
	<path class="st3" d="M15.9,12.8C14.8,9.3,6.4,4.3,3.4,2.6C3.2,2.7,3.1,2.9,3,3C2.8,3.2,2.6,3.3,2.4,3.5c5.8,10.2,11,11.6,11,11.6
		C16.6,16.1,15.9,12.8,15.9,12.8z"/>
	<path class="st4" d="M14.5,13.2C12.9,10.3,5.7,4.7,3.1,2.8C3.1,2.9,3,3,3,3C2.9,3.1,2.8,3.2,2.7,3.2c6.5,8.8,10.6,11.1,10.6,11.1
		C15.8,15.8,14.5,13.2,14.5,13.2z"/>
	<path class="st2" d="M20.5,8.8C18.4,5.1,7.7,2.4,3.9,1.5C3.8,1.8,3.7,2,3.5,2.2C3.4,2.4,3.2,2.7,3.1,2.9c9.2,9.5,15.4,9.3,15.4,9.3
		C22.3,12.2,20.5,8.8,20.5,8.8z"/>
	<path class="st3" d="M18.6,8.1c-2-3.2-11.4-5.7-14.8-6.6C3.8,1.7,3.7,1.9,3.6,2.1C3.5,2.3,3.3,2.5,3.2,2.6
		c8.3,8.3,13.7,8.3,13.7,8.3C20.2,11,18.6,8.1,18.6,8.1z"/>
	<path class="st4" d="M17.4,8.8C15.1,6.5,6.7,3,3.7,1.8c0,0.1-0.1,0.2-0.1,0.3C3.5,2.2,3.5,2.3,3.4,2.4c8.7,6.8,13.2,7.9,13.2,7.9
		C19.4,10.9,17.4,8.8,17.4,8.8z"/>
	<path class="st4" d="M17.4,8.8C15.1,6.5,6.7,3,3.7,1.8c0,0.1-0.1,0.2-0.1,0.3C3.5,2.2,3.5,2.3,3.4,2.4c8.7,6.8,13.2,7.9,13.2,7.9
		C19.4,10.9,17.4,8.8,17.4,8.8z"/>
	<path class="st2" d="M19.2-11.9c-4.3-0.3-12.6,7-15.4,9.7C3.9-2,4-1.8,4.1-1.6c0.1,0.2,0.2,0.5,0.3,0.8C17.5-3,20.8-8.3,20.8-8.3
		C22.9-11.4,19.2-11.9,19.2-11.9z"/>
	<path class="st3" d="M17.5-10.7C13.8-10.8,6.3-4.5,3.8-2.2C3.9-2,4-1.9,4.1-1.7C4.2-1.5,4.2-1.3,4.3-1c11.5-2.2,14.6-6.6,14.6-6.6
		C20.8-10.4,17.5-10.7,17.5-10.7z"/>
	<path class="st4" d="M17.5-9.3C14.2-8.7,6.6-3.7,3.9-1.9C4-1.9,4-1.8,4.1-1.7c0,0.1,0.1,0.2,0.1,0.3c10.5-3.3,13.9-6.5,13.9-6.5
		C20.3-9.7,17.5-9.3,17.5-9.3z"/>
	<path class="st2" d="M1.4-22.5c-2.7,3.3-1.5,14.3-1,18.2c0.2,0,0.5,0,0.7,0.1c0.3,0.1,0.5,0.1,0.8,0.2c5.8-12,3.4-17.7,3.4-17.7
		C3.9-25.3,1.4-22.5,1.4-22.5z"/>
	<path class="st3" d="M1.4-20.5c-2.3,3-1.4,12.7-1,16.1c0.2,0,0.4,0,0.6,0c0.2,0,0.4,0.1,0.6,0.2c4.9-10.7,3-15.7,3-15.7
		C3.5-23,1.4-20.5,1.4-20.5z"/>
	<path class="st4" d="M2.5-19.6c-1.4,3-1.8,12.1-1.8,15.3c0.1,0,0.2,0,0.3,0c0.1,0,0.2,0.1,0.3,0.1c3.3-10.5,2.8-15.1,2.8-15.1
		C3.8-22.2,2.5-19.6,2.5-19.6z"/>
	<path class="st2" d="M-12.5-18.5C-12.6-14.2-5-6.2-2.3-3.4c0.2-0.1,0.4-0.3,0.6-0.4C-1.4-3.9-1.1-4-0.9-4.1c-2.7-13-8-16.1-8-16.1
		C-12.1-22.2-12.5-18.5-12.5-18.5z"/>
	<path class="st3" d="M-11.2-16.9c0,3.8,6.6,11,9,13.5C-2-3.5-1.9-3.6-1.7-3.7c0.2-0.1,0.4-0.2,0.6-0.3c-2.6-11.5-7.2-14.4-7.2-14.4
		C-11-20.2-11.2-16.9-11.2-16.9z"/>
	<path class="st4" d="M-9.8-16.8c0.7,3.2,6,10.7,7.8,13.3c0.1-0.1,0.2-0.1,0.3-0.2c0.1,0,0.2-0.1,0.3-0.1c-3.7-10.4-7-13.7-7-13.7
		C-10.3-19.6-9.8-16.8-9.8-16.8z"/>
	<path class="st2" d="M-20.3-7.4C-17.9-3.9-7-1.9-3.1-1.3C-3.1-1.5-3-1.8-2.9-2c0.1-0.2,0.3-0.5,0.4-0.7c-9.8-8.9-16-8.3-16-8.3
		C-22.2-10.7-20.3-7.4-20.3-7.4z"/>
	<path class="st3" d="M-18.3-6.9c2.2,3,11.8,5,15.2,5.6C-3.1-1.5-3-1.7-2.9-1.9c0.1-0.2,0.2-0.4,0.4-0.6c-8.8-7.7-14.2-7.3-14.2-7.3
		C-20.1-9.7-18.3-6.9-18.3-6.9z"/>
	<path class="st4" d="M-17.2-7.7C-14.7-5.5-6.1-2.6-3-1.6c0-0.1,0-0.2,0.1-0.3C-2.9-2-2.8-2.1-2.7-2.2c-9.1-6.2-13.7-7-13.7-7
		C-19.2-9.7-17.2-7.7-17.2-7.7z"/>
	<path class="st2" d="M-18.2,11.3C-14,11.8-5.4,4.8-2.5,2.2C-2.6,2-2.7,1.8-2.8,1.6C-2.9,1.3-3,1-3.1,0.8
		c-13.2,1.7-16.6,6.9-16.6,6.9C-22,10.7-18.2,11.3-18.2,11.3z"/>
	<path class="st3" d="M-16.5,10.2c3.7,0.3,11.4-5.8,14.1-8C-2.6,2-2.7,1.8-2.8,1.7C-2.9,1.4-2.9,1.2-3,1
		c-11.6,1.8-14.8,6.2-14.8,6.2C-19.8,9.8-16.5,10.2-16.5,10.2z"/>
	<path class="st4" d="M-16.4,8.8c3.3-0.5,11.1-5.2,13.8-6.9c-0.1-0.1-0.1-0.2-0.2-0.3c0-0.1-0.1-0.2-0.1-0.3c-10.6,3-14.2,6-14.2,6
		C-19.3,9.1-16.4,8.8-16.4,8.8z"/>
	<path class="st2" d="M12.5,18C12.6,13.7,5,5.7,2.3,2.9C2.1,3,1.9,3.2,1.6,3.3C1.4,3.4,1.1,3.5,0.9,3.6c2.7,13,8.1,16.1,8.1,16.1
		C12.1,21.7,12.5,18,12.5,18z"/>
	<path class="st3" d="M11.2,16.3c0-3.7-6.6-11-9-13.5C2.1,3,1.9,3.1,1.7,3.2C1.5,3.3,1.3,3.4,1.1,3.5c2.6,11.5,7.2,14.4,7.2,14.4
		C11,19.6,11.2,16.3,11.2,16.3z"/>
	<path class="st4" d="M9.9,16.3C9.2,13.1,3.9,5.6,2,3C1.9,3.1,1.8,3.2,1.7,3.2c-0.1,0-0.2,0.1-0.3,0.1c3.7,10.4,7,13.7,7,13.7
		C10.4,19.1,9.9,16.3,9.9,16.3z"/>
	<path class="st4" d="M13-15C10.2-13.3,4.8-6,2.9-3.4c0.1,0,0.2,0.1,0.3,0.2C3.2-3.1,3.3-3,3.3-2.9C12-9.7,14.2-13.8,14.2-13.8
		C15.5-16.3,13-15,13-15z"/>
	<path class="st4" d="M-14.9-11.9c1.9,2.7,9.8,7.4,12.5,9c0-0.1,0.1-0.2,0.1-0.3C-2.1-3.3-2-3.3-1.9-3.4c-7.5-8-11.9-9.8-11.9-9.8
		C-16.5-14.3-14.9-11.9-14.9-11.9z"/>
	<path class="st4" d="M-18.4,3.2c3.3,0.3,11.9-2.7,15-3.8c-0.1-0.1-0.1-0.2-0.1-0.3c0-0.1,0-0.2,0-0.4c-11,0.6-15.1,2.8-15.1,2.8
		C-21.2,2.9-18.4,3.2-18.4,3.2z"/>
	<path class="st4" d="M-11.4,14.1c2.7-2,7.4-9.8,9-12.6c-0.1,0-0.2-0.1-0.3-0.1c-0.1-0.1-0.2-0.2-0.2-0.3c-8,7.6-9.7,11.9-9.7,11.9
		C-13.8,15.7-11.4,14.1-11.4,14.1z"/>
	<path class="st4" d="M2.4,19.1C3,15.8,1,6.9,0.3,3.8c-0.2,0.1-0.4,0.1-0.6,0c-0.6,11,1.1,15.3,1.1,15.3C1.8,21.8,2.4,19.1,2.4,19.1
		z"/>
	<polygon class="st5" points="4.8,-0.7 3.7,-2.6 2.9,-4 0.6,-4.7 -0.1,-4.4 -0.9,-4.6 -2.9,-3.7 -4.2,-2.8 -5.1,-0.6 -4.9,0 
		-4.8,0.9 -3.6,2.7 -2.9,3.9 -0.6,4.7 -0.1,4.7 0.9,4.2 3,3.8 3.8,2.5 4.8,0.7 4.8,0 	"/>
	<polygon class="st6" points="4.1,-0.6 2.8,-1.8 2.7,-3.6 0.6,-4.2 0,-2.9 -0.7,-3.7 -2.1,-2.8 -3.7,-2.5 -4.5,-0.5 -3.8,0 
		-3.7,0.7 -2.5,1.8 -2.4,3.4 -0.4,4.3 0,4.1 0.7,2.8 2.8,3.4 3,1.9 4.3,0.7 4,0 	"/>
	<path class="st5" d="M2.2,1.3c0,0.4-0.4,0.6-0.8,0.6c-0.3,0-0.6-0.3-0.6-0.6c0-0.4,0.4-0.6,0.8-0.6C1.9,0.8,2.2,1,2.2,1.3z"/>
	<path class="st5" d="M2.9,0.8c0,0.4-0.3,0.7-0.6,0.7c-0.4,0-0.7-0.3-0.7-0.6c0-0.4,0.3-0.7,0.6-0.7c0,0,0,0,0,0
		C2.6,0.2,2.9,0.5,2.9,0.8C2.9,0.8,2.9,0.8,2.9,0.8z"/>
	<path class="st5" d="M2.9-0.4c0,0.4-0.3,0.7-0.6,0.7C1.9,0.3,1.6,0,1.5-0.4c0-0.4,0.3-0.7,0.6-0.7c0,0,0,0,0,0
		C2.6-1.1,2.9-0.8,2.9-0.4C2.9-0.5,2.9-0.5,2.9-0.4z"/>
	<path class="st5" d="M2-2.4C2-2,1.7-1.7,1.4-1.6C1-1.6,0.7-1.9,0.6-2.3C0.6-2.7,0.9-3,1.3-3c0,0,0,0,0,0C1.7-3,2-2.7,2-2.4
		C2-2.4,2-2.4,2-2.4z"/>
	<path class="st5" d="M0.6-1.3c0,0.4-0.3,0.7-0.7,0.7s-0.7-0.3-0.7-0.7S-0.4-2,0-2S0.6-1.7,0.6-1.3z"/>
	<path class="st5" d="M0.6,0.4c0,0.4-0.3,0.7-0.7,0.7s-0.7-0.3-0.7-0.7S-0.4-0.3,0-0.3S0.6,0,0.6,0.4L0.6,0.4z"/>
	<path class="st5" d="M0,2.3C0,2.7-0.3,3-0.7,3c-0.4,0-0.7-0.3-0.7-0.6c0-0.4,0.3-0.7,0.6-0.7c0,0,0,0,0,0C-0.3,1.7,0,1.9,0,2.3
		C0,2.3,0,2.3,0,2.3z"/>
	<path class="st5" d="M-1.4,0.9c0,0.4-0.3,0.7-0.6,0.7c-0.4,0-0.7-0.3-0.7-0.6c0-0.4,0.3-0.7,0.6-0.7c0,0,0,0,0,0
		C-1.7,0.2-1.4,0.5-1.4,0.9z"/>
	<path class="st5" d="M-2-0.5c0,0.4-0.3,0.7-0.7,0.7s-0.7-0.3-0.7-0.7S-3-1.2-2.6-1.2S-2-0.9-2-0.5z"/>
	<path class="st5" d="M-0.9-2.7C-0.9-2.3-1.2-2-1.5-2s-0.7-0.3-0.7-0.7s0.3-0.7,0.7-0.7S-0.9-3.1-0.9-2.7L-0.9-2.7z"/>
</symbol>
<path class="st7" d="M161,0L161,0c88.9,0,161,72.1,161,161v147.4c0,88.9-72.1,161-161,161l0,0c-88.9,0-161-72.1-161-161V161
	C0,72.1,72.1,0,161,0z"/>
<path class="st8" d="M45.1,194c0,0-13.9,70.1-12.6,87.1c0,0-15.3,44.9-4.9,76.8s18.4,75.9,17.5,78.6c0,0-2.2,24,7.6,32h34.1
	c0,0-12.1-35.1-17.7-37.8c0,0-7.9-41.8-7-56.1c0,0-3.3-46.2-2.1-61.3c0,0,23.7-81.1,17.6-109.6s-34.4-12.6-34.4-12.6L45.1,194z"/>
<path class="st9" d="M188.4,56.7c-6.4,29.5-10.8,59.4-13.1,89.5c-7,93.8,7.7,173.6,24.3,231.5c2.8-0.6,7.1-1.5,12.3-2.8
	c8.1-1.9,8.3-2.2,10.1-2.3c5.7-0.3,8.6,2,18,6c3.3,1.4,8.4,3.4,14.8,5.4l-30.5-219.2l-3.6-113.5L188.4,56.7z"/>
<path class="st8" d="M191.9,108.8c0,0-8.9,43.9,9.1,48.8s30.1,4.1,31.4,7.6c-30.6,41.5-80.6,53.6-113.2,35
	c-27.6-15.8-34-48.7-35.2-55.3c6.8,2.5,29.3,10.1,40.3-0.2c7.9-7.4,10.7-24.6,9.7-36c-1.8-20.7,3.4-24,6.4-26.2
	C146.1,78.7,159.3,81.4,191.9,108.8z"/>
<path class="st10" d="M147.8,168c-0.2-1.6-1.2-2.9-2.6-3.6c-3.4-2-8.7-2.7-14.4-3.4c-11.4-1.2-20.6-2.5-20.6-2.6
	c6.7,1.9,13.5,3.3,20.4,3.9c5.7,0.7,10.9,1.1,14.2,2.7c1.3,0.5,2.4,1.7,2.8,3.1c0.1,0.5,0.1,1.1,0.1,1.6
	C147.8,169.1,147.8,168.6,147.8,168z"/>
<path class="st10" d="M168.1,167.2c-1.5,0.5-2.7,1.7-3.2,3.2c-0.1,0.5-0.2,1.1-0.2,1.6c0.1-0.5,0.2-1.1,0.4-1.6
	c0.6-1.3,1.8-2.3,3.2-2.6c3.5-1,8.8-0.6,14.5-0.4c6.9,0.4,13.9,0.2,20.8-0.7c0,0.1-9.3,0-20.8-0.7
	C177.1,165.9,171.8,165.8,168.1,167.2z"/>
<path class="st11" d="M192,107.6c-8.3,4.2-17.2,7.3-26.3,9.3c-11.2,2.4-22.8,3-34.2,1.8c0,0-2.3,9.4,15.8,9.9
	c18.6,0.5,30.4,1.3,38.5-7.7C189,117.1,191.2,112.5,192,107.6z"/>
<path class="st12" d="M151.7,66.3c1.6,0.9,3.4,1.6,5.2,2c0.9,0.2,1.8,0.4,2.7,0.5c0.5,0.1,0.9,0.1,1.4,0.2c0.5,0,1,0.1,1.5,0.2
	c-0.4,0.3-0.9,0.5-1.4,0.7c-0.5,0.2-1,0.3-1.5,0.4c-1.1,0.2-2.1,0.1-3.2-0.1c-1-0.3-2-0.7-2.9-1.4C152.6,68.2,152,67.3,151.7,66.3z"
	/>
<path class="st13" d="M156.7,64.7"/>
<path class="st9" d="M225.9,195.9c1.4,3.5,2.4,7.2,2.9,10.9c0.5,3.8,0.2,7.7,0.5,11.2c0.2,3.6,0.9,7.1,2,10.5c1,3.4,2.3,6.8,3.9,9.9
	c1.8,3.1,3.8,6.2,6,9c1.2,1.6,2.2,3.3,3.1,5.1c0.4,0.9,0.9,1.8,1.3,2.7l0.6,1.4l0.5,1.4c1.4,3.7,2.4,7.5,3.1,11.4c0.3,2,0.5,4,0.6,6
	c0,2,0,4-0.1,5.9s-0.2,3.6-0.1,5.3c0,1.7,0.2,3.4,0.5,5.1c0.5,3.5,1.4,6.9,2.5,10.3c1.1,3.3,2.6,6.5,4.5,9.4c1,1.5,2,3.1,3,4.8
	c1,1.7,1.9,3.5,2.7,5.3c1.5,3.6,2.6,7.3,3.4,11.2c0.8,3.8,1.1,7.7,1,11.6c-0.1,1.9-0.4,3.8-0.6,5.7s-0.4,3.6-0.4,5.5
	c0,3.7,0.3,7.4,1,11c-1.4-3.5-2.4-7.2-2.9-10.9c-0.5-3.8-0.2-7.7-0.5-11.2c-0.2-3.6-0.9-7.1-2-10.5c-1-3.4-2.3-6.8-3.9-10
	c-1.7-3.1-3.7-6.2-5.9-9c-1.2-1.6-2.2-3.3-3.1-5.1c-0.4-0.9-0.9-1.8-1.3-2.7l-0.6-1.4l-0.5-1.4c-1.4-3.7-2.4-7.5-3.1-11.4
	c-0.3-2-0.5-4-0.6-6c0-2,0-4,0.1-5.9s0.2-3.6,0.2-5.3c-0.1-1.7-0.2-3.4-0.5-5.1c-0.6-3.5-1.4-6.9-2.5-10.2c-1.1-3.3-2.6-6.5-4.5-9.4
	c-1-1.5-2-3.1-3-4.8c-1-1.7-1.9-3.5-2.7-5.3c-1.5-3.6-2.6-7.3-3.4-11.2c-0.8-3.8-1.2-7.7-1-11.6c0.1-1.9,0.4-3.8,0.6-5.7
	s0.4-3.6,0.4-5.5C226.8,203.2,226.5,199.5,225.9,195.9z"/>
<path class="st9" d="M223.2,223.6c1.4,3.5,2.4,7.2,2.9,10.9c0.5,3.8,0.2,7.7,0.5,11.2c0.2,3.6,0.9,7.1,2,10.5c1,3.4,2.3,6.8,3.9,10
	c1.7,3.1,3.7,6.2,5.9,9c1.2,1.6,2.2,3.3,3.1,5.1c0.4,0.9,0.9,1.8,1.3,2.7l0.6,1.4l0.5,1.4c1.4,3.7,2.4,7.5,3.1,11.4
	c0.3,2,0.5,4,0.6,6c0.1,2,0,4-0.1,5.9s-0.2,3.6-0.1,5.3c0,1.7,0.2,3.4,0.5,5.1c0.6,3.5,1.4,6.9,2.6,10.2c1.1,3.3,2.6,6.4,4.5,9.4
	c0.9,1.5,2,3.1,3,4.8c1,1.7,1.9,3.5,2.7,5.3c1.5,3.6,2.6,7.3,3.4,11.2c0.8,3.8,1.2,7.7,1,11.6c-0.1,1.9-0.4,3.8-0.6,5.7
	s-0.4,3.6-0.4,5.5c0,3.7,0.3,7.4,1,11c-1.4-3.5-2.4-7.2-2.9-10.9c-0.5-3.8-0.2-7.7-0.5-11.2c-0.2-3.6-0.9-7.1-2-10.5
	c-1-3.4-2.3-6.8-3.9-10c-1.7-3.1-3.7-6.2-5.9-9c-1.2-1.6-2.2-3.3-3.1-5.1c-0.4-0.9-0.9-1.8-1.3-2.7l-0.6-1.4l-0.5-1.4
	c-1.4-3.7-2.4-7.5-3.1-11.4c-0.3-2-0.5-4-0.6-6c-0.1-2,0-4,0.1-5.9s0.2-3.6,0.2-5.3c-0.1-1.7-0.2-3.4-0.5-5.1
	c-0.6-3.5-1.4-6.9-2.6-10.3c-1.1-3.3-2.6-6.5-4.5-9.4c-0.9-1.5-2-3.1-3-4.8c-1-1.7-1.9-3.5-2.7-5.3c-1.5-3.6-2.6-7.3-3.4-11.2
	c-0.8-3.8-1.1-7.7-0.9-11.6c0.1-1.9,0.4-3.8,0.6-5.7s0.4-3.6,0.4-5.5C224.3,230.9,223.9,227.2,223.2,223.6z"/>
<path class="st12" d="M130.9,61.3c0.5,0.3,1.1,0.5,1.6,0.5c0.5,0.1,1,0.2,1.6,0.3c0.5,0.1,1.1,0.3,1.6,0.5c0.6,0.2,1.2,0.6,1.7,1
	c-1.2,0.6-2.5,0.8-3.8,0.5c-0.7-0.2-1.3-0.5-1.8-0.9c-0.3-0.2-0.5-0.5-0.7-0.8C130.9,62,130.8,61.6,130.9,61.3z"/>
<path class="st8" d="M200.6,100.8c3.3-2.9,3.4-7.5,3.4-12.6c0.1-4.5-0.6-9-2.1-13.3c-0.4-1-1.3-3.2-2.2-6.5
	c-0.8-3.4-1.9-6.7-3.2-9.9c-5.1-12.8-10.9-25.2-17.4-37.4c-23.6-4.7-37.9-1.9-41.2,5.8c-8,18.5-13,46.2-12.8,46.2
	c0,0,0.2-0.9,0.3-1.8c-1.1,1.5-1.9,3.2-2.3,4.9c-1,3.9,0,7,0.6,10c0.9,4.5,1,9,0.4,13.5c0.4,3.4,0.6,6.9,0.6,10.3
	c0,4.2-0.3,5.7,0.5,7.8c1.6,3.9,5.8,5.6,8.3,6.6c6,2.4,10.6,1.5,19.2,0.9c17.2-1.2,15.1,0.8,19.8-0.7c3.6-1.3,6.9-3.1,9.9-5.5
	c5.4-4.2,9.6-9.7,12.1-16C196.8,103.1,198.9,102.2,200.6,100.8z"/>
<image style="overflow:visible;opacity:0.6;enable-background:new    ;" width="26" height="22" xlink:href="B18F78B0.png"  transform="matrix(1 0 0 1 155 80)">
</image>
<path class="st14" d="M193.4,72.1c-10.3,1-20.6,0.6-30.8-1.1l0.1,1.6C162.7,72.5,191.6,76.1,193.4,72.1z"/>
<path class="st9" d="M206.5,99.4c-9.9-5.5-18.1-13.5-23.7-23.3c-12.2-21.7-6.4-43.5-5.1-48c-1.7-1.3-3.5-2.3-5.4-3.1
	c-10.6-4.4-25-0.8-33.5,8.7c-8.1,9-7.9,20.2-7.8,23.1c-0.5,5.9-2.5,11.6-5.9,16.5c0,0-8.8-31.2,11.7-50.6s32.3-13.7,32.3-13.7
	s14.8-3.8,36.9,11S229.3,53,229.3,53c-3.3,5-6.5,10.4-9.7,16.4C214.4,79.1,210.1,89.1,206.5,99.4z"/>
<path class="st15" d="M210.9,299c-6.1,2.2-10.8-2.2-10.8-2.2c-2.1,3.9-3.4,8.2-3.6,12.7c-2.7-0.5-4.6-1-4.6-1s-25-0.9-43.3,3.6
	c-13.6,3.4-52.1-1.3-70.9-3.9c-0.8-5.9-1.2-11.8-1.2-17.7l130.2-2.7L210.9,299z"/>
<path class="st16" d="M67.2,306.7c6.2,5.7,12.7,6.8,14.7,4.6c1.7-1.8,0.8-6.4-1.8-10.8L67.2,306.7z"/>
<path class="st17" d="M138.1,64.6c0.1-1.9,0.9-3.4,2-3.7c1.4-0.3,2.8,1.3,3.4,2.2c2.5,4.6-6.1,13.6-7.4,14.8c0,0,6.8,1.1,5.5,4
	s-6.2,1.4-10.1-2c0,0-4.4,1.2-3.3-0.8C128.1,79.3,137.3,67,138.1,64.6z"/>
<g class="st18">
	<path class="st19" d="M132.4,89l-2.1-4.3c-1.5-0.7-2.5-2.1-2.8-3.7c-0.1-1.5,0.3-2.9,1.3-4l3.8-4.4c9.1-11.5,6-17.3,5.9-17.3
		l0.8-0.4c0.1,0.3,3.5,6.4-6,18.4l-3.8,4.5c-1.5,1.5-1.5,4,0,5.5c0.4,0.4,0.9,0.7,1.4,0.9l0.1,0.1l2.2,4.6L132.4,89z"/>
</g>
<path class="st20" d="M144.8,56.3c-0.2,0-0.7,3.2-2.2,7.2c-1.9,5.2-4.8,9.9-8.5,14c1.2,2.9,4.2,4.7,7.3,4.4
	C144.6,61.2,145.1,56.4,144.8,56.3z"/>
<path class="st21" d="M135.4,84.8c0.7,0.3,1.4,0.7,1.9,1.2c0,0,2.8,2.8,4.4,2.2c0,0,2,1.3-3.8,1.2c0,0-4.6-0.4-3.1-2.2l-0.4-1.4
	c-0.1-0.4,0.1-0.8,0.6-0.9C135.1,84.8,135.3,84.8,135.4,84.8z"/>
<path class="st22" d="M148.6,102.6l-10.7-6.3c-0.2-0.1-0.5-0.3-0.6-0.6c-0.7-0.9-2.8-3.2-4.8-1.4c0,0-3.2-2.6-4.3-0.2l-1.6,3
	c0,0,1.6,0.7,0.4,4.3c-1,2.9,5.1,4,7.4,4.3c0.5,0.1,1.1,0.1,1.6,0c1.1-0.1,2.2-0.3,3.2-0.6c1-0.3,3.1-2.9,9.3-2.3
	c0.1,0,0.1,0,0.1-0.1C148.7,102.6,148.6,102.6,148.6,102.6z"/>
<path class="st23" d="M138.9,102.1c0,0-4.9-1.4-4.8,0.4S138.9,102.1,138.9,102.1z"/>
<path class="st24" d="M147.9,102.2c-2.4-0.3-4.4-0.6-5.7-0.8c-4.9-0.9-4.6-1.3-6.6-1.3c-1.4,0-2.5,0.2-3.8-0.6
	c-0.5-0.3-1-0.7-1.3-1.1c-0.1,0-0.5,0-0.5-0.2s0.3-0.5,0.7-0.5c0.3,0,0.6,0.2,0.7,0.4c0.7,0.7,2.1,0.6,3.1,0.5c2,0,4.1,0.4,6,1.1
	c1,0.4,1,0.4,2.9,1.1S146.9,101.9,147.9,102.2z"/>
<path class="st25" d="M147.8,102.8c-0.5,0-1.1,0-1.6-0.1h-0.8c-0.3,0-0.5,0-0.8-0.1l-3.1-0.7l-6.1-1.4h0.2c-1,0.2-2,0.1-2.9-0.2
	c-0.9-0.3-1.8-0.9-2.4-1.7l0.2,0.1l-1-0.3c-0.3-0.1-0.7-0.2-1-0.4c-0.7-0.3-1.3-0.6-1.9-1c0.7,0.1,1.4,0.2,2.1,0.3
	c0.4,0,0.7,0.1,1.1,0.2l1,0.3h0.1l0.1,0.1c0.5,0.6,1.2,1.1,2,1.4c0.8,0.3,1.7,0.3,2.5,0.2h0.1h0.1l6.1,1.4l3.1,0.7
	c0.3,0,0.5,0.1,0.8,0.2l0.7,0.3C146.8,102.4,147.3,102.6,147.8,102.8z"/>
<path class="st12" d="M164.9,68.4c-2.4-1.1-4.5-2.5-6.7-3.7c-1-0.6-2.1-1.1-3.2-1.5c-0.5-0.2-1.1-0.2-1.6-0.1
	c-0.6,0.1-1.1,0.4-1.5,0.9c0.1-0.7,0.5-1.4,1.1-1.8c0.7-0.4,1.4-0.6,2.2-0.5c1.4,0.1,2.8,0.6,4,1.3c1.2,0.6,2.2,1.4,3.2,2.3
	C163.3,66.2,164.2,67.2,164.9,68.4z"/>
<path class="st26" d="M156.1,59.9c2.4-1,5-0.8,7.3,0.4c2.3,1.2,3.8,3.4,4.3,5.9c-0.5-1.1-1.2-2-2-2.9c-0.8-0.8-1.7-1.6-2.7-2.1
	C160.8,60.1,158.4,59.6,156.1,59.9z"/>
<path class="st9" d="M165.2,56.1H165l1.5,1.4L165.2,56.1z"/>
<path class="st9" d="M164,55.9l-0.4-0.1l0.6,0.4L164,55.9z"/>
<path class="st9" d="M148.6,53.7l2.7,0.4l0,0l0.7,0.1l0.9,0.1l0.9,0.1l1.2,0.2h0.3l1,0.2l0.7,0.1l2.9,0.4l0.5,0.1l3.4,0.5l0,0
	l0.4,0.1l0.9,0.1l0.8,0.1l4.1,3.9c-1-0.3-2.1-0.6-3.2-0.9c-6.4-1.6-13-2.1-19.5-1.5c0-1.4,0.1-2.7,0.1-4.1"/>
<path class="st9" d="M137.7,54.7c-1.1-0.9-2.3-1.7-3.5-2.4c-0.9-0.6-1.9-1.1-2.9-1.5l0.3-2.2l7.2,3.7
	C138.7,53.2,138.3,54,137.7,54.7z"/>
<path class="st12" d="M138.4,61.4c-0.7-0.5-1.3-1-1.9-1.4c-0.5-0.4-1.1-0.7-1.6-1c-0.5-0.2-1-0.3-1.5-0.1c-0.3,0.1-0.6,0.2-0.9,0.3
	c-0.4,0.2-0.7,0.4-1.1,0.5c0.1-0.4,0.2-0.8,0.4-1.2c0.2-0.4,0.6-0.7,0.9-1c0.2-0.2,0.4-0.3,0.7-0.4c0.2-0.1,0.5-0.2,0.8-0.2
	c0.5,0,1.1,0,1.6,0.2c0.8,0.4,1.5,1,2,1.8C138.1,59.7,138.3,60.5,138.4,61.4z"/>
<path class="st9" d="M200.8,19.2c8.4,3.6,16,8.6,22.4,15c4.3,4.2,9.8,9.8,13.2,18.9c1.2,3.2,2,6.5,2.4,9.9c1.7,3.7,2,7.8,0.8,11.7
	c-0.8,2.5-2.2,4.8-4.1,6.6c0,0,5.4,9.2-3.1,20.5l-4.9,7.8c4.6,6.9,2.9,16.2-4,20.8c-0.1,0.1-0.2,0.1-0.3,0.2
	c0.9,0.5,3.6,2.2,4.2,5.1c0.8,4-2.6,9.1-9,10.9c-3.3-12.8-6.3-26.5-8.9-40.9C204.5,77,201.5,48.1,200.8,19.2z"/>
<path class="st27" d="M163.4,73.1c0.2,6.3-4.7,13.5-10.4,13.3s-9.2-7.1-10-12c-0.6-3.7-0.2-10.6,4.5-13c4.5-2.2,9.6,1.2,10.4,1.7
	C158,63.2,163.1,66.8,163.4,73.1z"/>
<path class="st28" d="M162.2,73.1c0.2,5.7-4.2,12-9.3,11.9s-8.2-6.3-8.9-10.7c-0.5-3.3-0.2-9.4,4-11.5c4-2,8.6,1.1,9.2,1.5
	C157.5,64.3,162,67.6,162.2,73.1z"/>
<path class="st27" d="M145.4,63c0,0-6.7-4.4-8.9-3.3l0.1,1.1c0,0,2.6-0.7,9,3.8L145.4,63z"/>
<path class="st27" d="M136.1,59.9c1.6,5.2-0.3,10.9-4.8,14.1c-0.9,0.7-3,2.1-5.4,1.6c-4.4-0.9-6.3-7.6-6.6-11.2
	c-0.1-0.7-1-10.5,4.1-12.7C127.7,50,134.2,54.3,136.1,59.9z"/>
<path class="st28" d="M135.4,60.3c1.5,4.8-0.3,9.9-4.4,12.8c-0.9,0.6-2.7,1.9-4.9,1.4c-4-0.8-5.7-6.9-6-10.2
	c-0.1-0.7-0.9-9.6,3.7-11.5C127.7,51.2,133.6,55.1,135.4,60.3z"/>
<path class="st27" d="M120.8,53.5"/>
<path class="st27" d="M121,54.3c0,0-1-0.2-0.4-0.5l-0.3-0.2c-0.3-0.1-0.6-0.1-0.9,0l-0.2,0.1c0,0-1.6,1.8,1.4,1.9L121,54.3z"/>
<path class="st9" d="M196.9,110.5c0,0.5,0.1,1,0.1,1.5s0,1-0.1,1.5c-0.1,1-0.4,2.1-0.8,3.1c-0.8,2-2.1,3.7-2.9,5.3
	c-0.8,1.5-1.2,3.1-1.3,4.8c0,0.8,0,1.7,0.1,2.5c0.1,0.8,0.3,1.5,0.5,2.3c0.7,1.6,1.6,3.1,2.6,4.6c0.6,1,1.1,2.1,1.6,3.2
	c0.4,1.2,0.7,2.4,0.8,3.6c0.1,0.6,0.1,1.2,0.1,1.8c0,0.6,0,1.2-0.1,1.8c0,0.6-0.1,1.2-0.3,1.8c-0.1,0.6-0.3,1.2-0.4,1.8
	c-0.4,1.2-0.9,2.4-1.6,3.4c-0.6,0.9-1.3,1.9-2,2.7c-0.6,0.8-1.1,1.4-1.5,2c-0.4,0.6-0.7,1.2-0.9,1.9c-0.5,1.5-0.7,3-0.6,4.5
	c0,0.7,0.1,1.4,0.3,2.1c0.2,0.8,0.5,1.5,0.9,2.2c0.4,0.8,0.9,1.7,1.3,2.7c0.5,1.1,0.9,2.2,1.1,3.4c0.2,1.2,0.3,2.4,0.3,3.6
	c-0.1,1.1-0.2,2.3-0.4,3.4c-0.3,1.1-0.6,2.2-1.1,3.2c-0.5,1-1.1,2-1.9,2.8c-1.4,1.7-2.9,2.8-4,4.3c-1.2,1.5-2,3.3-2.5,5.1
	c0-0.5-0.1-1-0.1-1.5s0.1-1,0.1-1.5c0.1-1,0.4-2,0.8-3c0.8-2,2.1-3.7,2.9-5.3c0.8-1.5,1.2-3.1,1.3-4.8c0-0.8,0-1.7-0.1-2.5
	c-0.1-0.8-0.3-1.5-0.5-2.3c-0.7-1.6-1.6-3.1-2.6-4.6c-0.6-1-1.1-2.1-1.6-3.2c-0.4-1.2-0.7-2.4-0.8-3.6c-0.1-0.6-0.1-1.2-0.1-1.8
	c0-0.6,0-1.2,0.1-1.8c0.1-0.6,0.1-1.2,0.3-1.8c0.1-0.6,0.3-1.2,0.4-1.8c0.4-1.2,0.9-2.4,1.6-3.4c0.6-0.9,1.3-1.9,2-2.7
	c0.5-0.6,1.1-1.3,1.5-2c0.4-0.6,0.7-1.2,0.9-1.9c0.5-1.5,0.7-3,0.7-4.5c0-0.7-0.1-1.5-0.3-2.2c-0.2-0.8-0.5-1.5-0.9-2.2
	c-0.4-0.8-0.9-1.7-1.3-2.7c-0.5-1.1-0.9-2.2-1.1-3.4c-0.2-1.2-0.3-2.4-0.3-3.6c0-1.1,0.2-2.3,0.4-3.4c0.3-1.1,0.6-2.2,1.1-3.2
	c0.5-1,1.1-2,1.9-2.8c1.4-1.7,2.9-2.8,4-4.3C195.6,114.2,196.4,112.4,196.9,110.5z"/>
<path class="st9" d="M179.4,26.2l-0.1,1.5c-0.1,0.5-0.1,1-0.2,1.5c-0.2,1-0.6,1.9-1,2.9c-0.9,1.8-2.3,3.3-3.3,4.9
	c-0.5,0.8-0.9,1.6-1.2,2.5c-0.3,0.9-0.5,1.8-0.6,2.7c-0.2,1.8-0.1,3.7,0.3,5.4c0.6,1.8,1.5,3.4,2.5,5c0.5,0.9,1,1.9,1.3,2.9
	c0.3,1,0.5,2.1,0.6,3.2c0.1,2.1-0.1,4.3-0.8,6.3c-0.3,1.1-0.8,2.1-1.4,3c-0.6,0.9-1.2,1.7-1.9,2.5c-0.6,0.8-1.2,1.5-1.7,2.2
	c-0.5,0.7-0.9,1.5-1.1,2.3c-0.5,1.7-0.8,3.5-0.7,5.3c0,0.9,0.2,1.7,0.4,2.6c0.3,0.9,0.6,1.7,1,2.5c1.1,1.8,1.9,3.7,2.4,5.7
	c0.4,2.1,0.4,4.2,0,6.3c-0.2,1-0.5,2-0.9,3c-0.4,1-1,1.9-1.6,2.7c-1.3,1.6-2.7,2.9-3.8,4.5c-1.1,1.6-1.8,3.5-2.1,5.4l0.1-1.5
	c0.1-0.5,0.1-1,0.2-1.5c0.2-1,0.6-1.9,1-2.8c0.9-1.8,2.3-3.3,3.3-4.9c0.5-0.8,0.9-1.6,1.2-2.5c0.3-0.9,0.5-1.8,0.6-2.7
	c0.3-1.8,0.1-3.7-0.3-5.4c-0.6-1.8-1.5-3.4-2.5-5c-0.5-0.9-1-1.9-1.3-2.9c-0.3-1-0.5-2.1-0.6-3.2c-0.1-2.2,0.1-4.3,0.8-6.4
	c0.3-1.1,0.8-2.1,1.4-3c0.6-0.9,1.2-1.7,1.9-2.5c0.6-0.8,1.2-1.5,1.7-2.2c0.5-0.7,0.9-1.5,1.1-2.3c0.5-1.7,0.8-3.5,0.7-5.3
	c0-0.9-0.2-1.7-0.4-2.6c-0.3-0.9-0.6-1.7-1-2.5c-1.1-1.8-1.9-3.7-2.4-5.7c-0.4-2.1-0.4-4.2,0-6.3c0.2-1,0.5-2,0.9-3
	c0.4-1,1-1.9,1.6-2.7c1.3-1.6,2.7-2.9,3.8-4.5C178.4,29.9,179.1,28.1,179.4,26.2z"/>
<path class="st8" d="M232.4,357.5L108,371.9c-20.8-18.6-27.9-45.9-30.3-63.6c18.8,2.6,57.3,7.2,70.9,3.9c18.2-4.5,43.3-3.6,43.3-3.6
	c1.5,0.4,3,0.8,4.6,1c5.3,0.7,10.6,0.4,15.8-0.9c1.1-0.3,2-0.6,2.6-0.8c1,0.2,2,0.7,2.8,1.4c1.2,1.1,1.9,2.6,2.1,4.2
	c0.8,3.8-0.1,6-0.2,8.6c-0.1,3.2,1.4,3.5,4.4,11.2c1.3,3.4,3.1,8.4,5.1,14.6C230.1,351.1,231.2,354.3,232.4,357.5z"/>
<path class="st4" d="M257.6,225.9c-4.3,2.5-8.9,4.4-13.8,5.6c-6.1,1.7-12.3,2.8-18.6,3.3c-3.3,5.8-5,15.3-5.9,22.5
	c-0.5,3.9-0.7,7.1-0.8,8.7c0,0.7-0.4,1.3-0.9,1.8c-5.3,4.5-3.4,10.6-2.6,12.6c0.2,0.4,0.2,0.9,0.1,1.4c-0.7,4-0.9,8.2-0.7,12.3
	c0.3,0.8,0.6,1.5,0.9,2.2c5.9,15.8,0.9,16.9,0.9,16.9s0.9-4.2-1.6-4.1c-0.7,0.1-1.4,0.3-2,0.7c-3.2,1.8-11.1,0.6-16.2-0.4
	c-2.7-0.5-4.6-1-4.6-1s-25-0.9-43.3,3.6c-13.6,3.4-52.1-1.3-70.9-3.9c-6.4-0.9-10.6-1.5-10.6-1.5l2.7-12.1
	c-6.3-28.5,6.3-79.5,6.3-79.5c-12.7-5.4-26.6-7.6-40.4-6.3c4.8-12.3,8.9-24.9,12-37.8c2.7-11.3,3.1-16.1,7.3-20.4
	c9.3-9.6,27.6-6.5,38.8-3.6c9.2,64.9,57.8,59.5,82.4,54.5s36.4-41.4,36.4-41.4c15.3-4.1,29.6,14.9,29.6,14.9
	c10.3,2.2,10.8,36.4,10.8,36.4C254.6,216.3,256.1,221.1,257.6,225.9z"/>
<g>
	<defs>
		<path id="SVGID_1_" d="M257.6,225.9c-4.3,2.5-8.9,4.4-13.8,5.6c-6.1,1.7-12.3,2.8-18.6,3.3c-3.3,5.8-5,15.3-5.9,22.5
			c-0.5,3.9-0.7,7.1-0.8,8.7c0,0.7-0.4,1.3-0.9,1.8c-5.3,4.5-3.4,10.6-2.6,12.6c0.2,0.4,0.2,0.9,0.1,1.4c-0.7,4-0.9,8.2-0.7,12.3
			c0.3,0.8,0.6,1.5,0.9,2.2c5.9,15.8,0.9,16.9,0.9,16.9s0.9-4.2-1.6-4.1c-0.7,0.1-1.4,0.3-2,0.7c-3.2,1.8-11.1,0.6-16.2-0.4
			c-2.7-0.5-4.6-1-4.6-1s-25-0.9-43.3,3.6c-13.6,3.4-52.1-1.3-70.9-3.9c-6.4-0.9-10.6-1.5-10.6-1.5l2.7-12.1
			c-6.3-28.5,6.3-79.5,6.3-79.5c-12.7-5.4-26.6-7.6-40.4-6.3c4.8-12.3,8.9-24.9,12-37.8c2.7-11.3,3.1-16.1,7.3-20.4
			c9.3-9.6,27.6-6.5,38.8-3.6c9.2,64.9,57.8,59.5,82.4,54.5s36.4-41.4,36.4-41.4c15.3-4.1,29.6,14.9,29.6,14.9
			c10.3,2.2,10.8,36.4,10.8,36.4C254.6,216.3,256.1,221.1,257.6,225.9z"/>
	</defs>
	<clipPath id="SVGID_2_">
		<use xlink:href="#SVGID_1_"  style="overflow:visible;"/>
	</clipPath>
	<g class="st29">
		<g>
			<defs>
				<rect id="SVGID_3_" x="44.9" y="132.5" width="26" height="26.1"/>
			</defs>
			<clipPath id="SVGID_4_">
				<use xlink:href="#SVGID_3_"  style="overflow:visible;"/>
			</clipPath>
			<g style="clip-path:url(#SVGID_4_);">
				
					<use xlink:href="#Daisy"  width="47.4" height="47.4" x="-23.7" y="-23.7" transform="matrix(0.55 0 0 0.55 56.9436 144.5605)" style="overflow:visible;"/>
			</g>
		</g>
		<g>
			<defs>
				<rect id="SVGID_5_" x="34.6" y="175.8" width="26" height="26.1"/>
			</defs>
			<clipPath id="SVGID_6_">
				<use xlink:href="#SVGID_5_"  style="overflow:visible;"/>
			</clipPath>
			<g style="clip-path:url(#SVGID_6_);">
				
					<use xlink:href="#Daisy"  width="47.4" height="47.4" x="-23.7" y="-23.7" transform="matrix(0.55 0 0 0.55 46.6836 187.8405)" style="overflow:visible;"/>
			</g>
		</g>
		<g>
			<defs>
				<rect id="SVGID_7_" x="89.1" y="175.9" width="26" height="26.1"/>
			</defs>
			<clipPath id="SVGID_8_">
				<use xlink:href="#SVGID_7_"  style="overflow:visible;"/>
			</clipPath>
			<g style="clip-path:url(#SVGID_8_);">
				
					<use xlink:href="#Daisy"  width="47.4" height="47.4" x="-23.7" y="-23.7" transform="matrix(0.55 0 0 0.55 101.1436 187.8905)" style="overflow:visible;"/>
			</g>
		</g>
		<g>
			<defs>
				<rect id="SVGID_9_" x="77.3" y="217.6" width="26" height="26.1"/>
			</defs>
			<clipPath id="SVGID_10_">
				<use xlink:href="#SVGID_9_"  style="overflow:visible;"/>
			</clipPath>
			<g style="clip-path:url(#SVGID_10_);">
				
					<use xlink:href="#Daisy"  width="47.4" height="47.4" x="-23.7" y="-23.7" transform="matrix(0.55 0 0 0.55 89.3836 229.6905)" style="overflow:visible;"/>
			</g>
		</g>
		<g>
			<defs>
				<rect id="SVGID_11_" x="120.2" y="213.2" width="26" height="26.1"/>
			</defs>
			<clipPath id="SVGID_12_">
				<use xlink:href="#SVGID_11_"  style="overflow:visible;"/>
			</clipPath>
			<g style="clip-path:url(#SVGID_12_);">
				
					<use xlink:href="#Daisy"  width="47.4" height="47.4" x="-23.7" y="-23.7" transform="matrix(0.55 0 0 0.55 132.2636 225.2805)" style="overflow:visible;"/>
			</g>
		</g>
		<g>
			<defs>
				<rect id="SVGID_13_" x="177" y="186.6" width="26" height="26.1"/>
			</defs>
			<clipPath id="SVGID_14_">
				<use xlink:href="#SVGID_13_"  style="overflow:visible;"/>
			</clipPath>
			<g style="clip-path:url(#SVGID_14_);">
				
					<use xlink:href="#Daisy"  width="47.4" height="47.4" x="-23.7" y="-23.7" transform="matrix(0.55 0 0 0.55 189.0036 198.6905)" style="overflow:visible;"/>
			</g>
		</g>
		<g>
			<defs>
				<rect id="SVGID_15_" x="215.3" y="155.3" width="26" height="26.1"/>
			</defs>
			<clipPath id="SVGID_16_">
				<use xlink:href="#SVGID_15_"  style="overflow:visible;"/>
			</clipPath>
			<g style="clip-path:url(#SVGID_16_);">
				
					<use xlink:href="#Daisy"  width="47.4" height="47.4" x="-23.7" y="-23.7" transform="matrix(0.55 0 0 0.55 227.3736 167.3605)" style="overflow:visible;"/>
			</g>
		</g>
		<g>
			<defs>
				<rect id="SVGID_17_" x="224.9" y="210" width="26" height="26.1"/>
			</defs>
			<clipPath id="SVGID_18_">
				<use xlink:href="#SVGID_17_"  style="overflow:visible;"/>
			</clipPath>
			<g style="clip-path:url(#SVGID_18_);">
				
					<use xlink:href="#Daisy"  width="47.4" height="47.4" x="-23.7" y="-23.7" transform="matrix(0.55 0 0 0.55 236.9736 222.0805)" style="overflow:visible;"/>
			</g>
		</g>
		<g>
			<defs>
				<rect id="SVGID_19_" x="181.7" y="230.6" width="26" height="26.1"/>
			</defs>
			<clipPath id="SVGID_20_">
				<use xlink:href="#SVGID_19_"  style="overflow:visible;"/>
			</clipPath>
			<g style="clip-path:url(#SVGID_20_);">
				
					<use xlink:href="#Daisy"  width="47.4" height="47.4" x="-23.7" y="-23.7" transform="matrix(0.55 0 0 0.55 193.7636 242.6605)" style="overflow:visible;"/>
			</g>
		</g>
		<g>
			<defs>
				<rect id="SVGID_21_" x="187" y="282.6" width="26" height="26.1"/>
			</defs>
			<clipPath id="SVGID_22_">
				<use xlink:href="#SVGID_21_"  style="overflow:visible;"/>
			</clipPath>
			<g transform="matrix(1 0 0 1 1.525879e-05 0)" style="clip-path:url(#SVGID_22_);">
				
					<use xlink:href="#Daisy"  width="47.4" height="47.4" x="-23.7" y="-23.7" transform="matrix(0.55 0 0 0.55 199.0336 294.6505)" style="overflow:visible;"/>
			</g>
		</g>
		<g>
			<defs>
				<rect id="SVGID_23_" x="144.5" y="261.4" width="26" height="26.1"/>
			</defs>
			<clipPath id="SVGID_24_">
				<use xlink:href="#SVGID_23_"  style="overflow:visible;"/>
			</clipPath>
			<g transform="matrix(1 0 0 1 -1.525879e-05 0)" style="clip-path:url(#SVGID_24_);">
				
					<use xlink:href="#Daisy"  width="47.4" height="47.4" x="-23.7" y="-23.7" transform="matrix(0.55 0 0 0.55 156.5736 273.4305)" style="overflow:visible;"/>
			</g>
		</g>
		<g>
			<defs>
				<rect id="SVGID_25_" x="113.9" y="292.2" width="26" height="26.1"/>
			</defs>
			<clipPath id="SVGID_26_">
				<use xlink:href="#SVGID_25_"  style="overflow:visible;"/>
			</clipPath>
			<g style="clip-path:url(#SVGID_26_);">
				
					<use xlink:href="#Daisy"  width="47.4" height="47.4" x="-23.7" y="-23.7" transform="matrix(0.55 0 0 0.55 125.9736 304.2105)" style="overflow:visible;"/>
			</g>
		</g>
		<g>
			<defs>
				<rect id="SVGID_27_" x="83.1" y="271.2" width="26" height="26.1"/>
			</defs>
			<clipPath id="SVGID_28_">
				<use xlink:href="#SVGID_27_"  style="overflow:visible;"/>
			</clipPath>
			<g style="clip-path:url(#SVGID_28_);">
				
					<use xlink:href="#Daisy"  width="47.4" height="47.4" x="-23.7" y="-23.7" transform="matrix(0.55 0 0 0.55 95.1236 283.2105)" style="overflow:visible;"/>
			</g>
		</g>
	</g>
</g>
<path class="st23" d="M214.7,200.3c0.2-0.1,0.4-0.2,0.4-0.4c0,0,0-0.1,0-0.2c0-0.2-0.1-0.3-0.2-0.5c1.9-11.3,6.1-22.1,12.4-31.8
	c1.6-0.1,3.2,0,4.7,0.5c1.6,0.5,3.1,1.3,4.4,2.3c-4.2,2.8-7.7,6.4-10.4,10.6c-6.5,10.5-11,30.3,0.8,39.4c8.1,6.3,20.2,6.4,29.5,2.8
	c0.2,0.9,0.3,1.8,0.5,2.8c-9.2,0.4-18.3,2.4-26.8,6c-4.9,2-9.5,4.6-13.9,7.6C212.4,226.5,212,213.2,214.7,200.3L214.7,200.3z"/>
<path class="st30" d="M278,469.4H80.7c-8.8-22.7-8.4-39.7-6.2-51.4c3.6-19.4,12.1-23.5,10.4-40.5c-1-9.6-5.2-22.9,1.9-29.8
	c0.5-0.6,1-1,1.7-1.4c9.6-4.6,41.1,5.7,80.6,4.4c0,0,36.9-13.1,50.3-27.8c0.8-0.9,1.6-1.8,2.2-2.8c0,0,4-3.1,4.5,13.5
	c0,0,2.1,6.5,4.8,13.1c2.4,5.7,5.3,11.5,7.8,13.4C244.1,364.2,285.9,421,278,469.4z"/>
<path class="st31" d="M276.7,469.4H83.6c-8.6-22.4-8.2-39.3-6.1-50.8c3.5-19.2,11.9-23.2,10.2-40.1c-1-9.5-5-22.7,1.9-29.4
	c0.5-0.6,1-1,1.7-1.4c9.4-4.5,40.2,5.7,78.9,4.3c0,0,36.2-13,49.2-27.4c0.8-0.9,1.5-1.8,2.2-2.8c0,0,4-3.1,4.4,13.3
	c0,0,2,6.4,4.7,12.9c2.3,5.6,5.1,11.4,7.6,13.2C243.5,365.5,284.4,421.5,276.7,469.4z"/>
<path class="st8" d="M251.2,228.1c-0.5,11.6-2,23.2-4.6,34.5c-3.6,15.6-9.2,30.7-16.6,44.9l-9.6-1.1c4.7-10,7.5-20.7,8.4-31.7
	c1.2-15.9-1.7-31.9-8.4-46.4c6.8,3.2,14.4,4.2,21.8,2.8C245.3,230.6,248.3,229.5,251.2,228.1z"/>
<path class="st32" d="M251.2,228.1c-0.5,11.6-2,23.2-4.6,34.5c-3.6,15.6-9.2,30.7-16.6,44.9l-9.6-1.1c4.7-10,7.5-20.7,8.4-31.7
	c1.2-15.9-1.7-31.9-8.4-46.4c6.8,3.2,14.4,4.2,21.8,2.8C245.3,230.6,248.3,229.5,251.2,228.1z"/>
<path class="st8" d="M254.9,263.6c-0.9,2-6.9,26.5-7.2,46.7c-0.2,12-8.9,27.3-16.7,35.5c-2.8-6.6-4.8-13.1-4.8-13.1
	c-0.4-16.6-4.5-13.5-4.5-13.5c-0.7,1-1.4,1.9-2.2,2.8l-4.7-12.9c2.5-0.1,1.6,4.1,1.6,4.1s4.9-1.1-0.9-16.9c4.7-4,9.7-12.5,14-29.2
	c-3.7-2.9-7-6.1-9.9-9.8c-2.2-2.6-3.8-5.7-4.7-9.1c0,0-21.3-4.5-24-13c-0.2-0.5-0.2-1-0.1-1.5c0-0.1,0.1-0.2,0.2-0.3l0,0
	c0.8-0.9,3-0.2,7.5,1.3c8,2.7,13.9,5,15.3,3.1c0.1-0.2,0.2-0.4,0.2-0.6c0.4-3-10.6-7.2-15.9-9c-1.8-0.6-3.6-1.3-5.3-2.2
	c-0.5-0.3-1-0.6-1.3-1.1c-1-1.2-0.8-3,0.5-3.9c0.5-0.4,1.1-0.6,1.8-0.6c0,0-3.6-6.1,2.3-7.6s24.9,5.8,24.9,5.8
	c0.5-0.2,0.9-0.6,1-1.1c0.4-2.2-6.1-5-7.4-5.5c-2.4,0.7-4.4,1.2-6.1,1.6c-1.2,0.4-2.5,0.4-3.7,0c-0.6-0.2-1.1-0.5-1.5-0.9
	c0.9-5.8,2.8-8.6,4.7-8.8c3.2-0.3,6.4-0.3,9.7,0c4.6,2,16.2,7.6,21.3,15.5c0.9,1.3,3.4,5.6,6.1,11c0.9,1.8,1.7,3.3,2.6,5.4
	c4.1,9.3,2.7,10.5,5.9,15.9C254.3,253.8,258.4,255.7,254.9,263.6z"/>
<g class="st33">
	<path class="st19" d="M216.9,228.4c-0.9-0.4-1.9-0.8-2.8-1.2s-1.7-1-2.6-1.5c-1.7-1-3.5-1.9-5.3-2.8c-1.8-0.9-3.6-1.6-5.5-2.1
		c-0.9-0.3-1.9-0.5-2.8-0.6c-0.9-0.3-1.9-0.3-2.9-0.1c0.9-0.6,1.9-0.9,3-0.9c1,0.1,2,0.3,3,0.6c1.9,0.6,3.8,1.3,5.6,2.2
		c1.8,0.9,3.6,1.8,5.3,2.8c0.9,0.5,1.7,1,2.6,1.5C215.5,227,216.2,227.7,216.9,228.4z"/>
</g>
<path class="st23" d="M79.6,177.3c-0.2-0.1-0.4-0.2-0.4-0.4c0-0.1,0-0.1,0-0.2c0-0.2,0.1-0.3,0.2-0.5c-0.8-4.7-2-9.3-3.5-13.8
	c-2.2-6.3-5.2-12.4-8.8-18c-3.3-0.3-6.5,0.7-9,2.8c4.2,2.8,7.7,6.4,10.4,10.6c6.5,10.5,11,30.3-0.8,39.3c-8.1,6.3-20.2,6.4-29.5,2.8
	c-0.2,0.9-0.3,1.8-0.5,2.8c9.2,0.4,18.3,2.4,26.8,6c4.9,2,9.5,4.6,13.9,7.6c1.7-5.9,2.7-11.9,3-18C81.7,191.2,81.1,184.2,79.6,177.3
	z"/>
<g>
	<defs>
		<rect id="SVGID_29_" x="196.3" y="98" width="4" height="3.6"/>
	</defs>
	<clipPath id="SVGID_30_">
		<use xlink:href="#SVGID_29_"  style="overflow:visible;"/>
	</clipPath>
	<g style="clip-path:url(#SVGID_30_);">
		
			<use xlink:href="#Butterfly"  width="79.6" height="72.1" x="-39.8" y="-36" transform="matrix(5.000000e-02 0 0 5.000000e-02 197.9518 99.5278)" style="overflow:visible;"/>
	</g>
</g>
<path class="st4" d="M67.3,209.6c-9.1-4.2-18.8-6.7-28.8-7.4c-2,1.6-2.6,4.8-2.2,7.3c2.5-0.7,5.6-0.2,8.1,0.1
	c4.7,0.5,9.4,1.4,14,2.5c4.8,1.1,9.5,2.6,14.1,4.4c2.3,0.9,4.5,2,6.5,3.4c0-1.3,0-2.5,0-3.8C75.2,213.6,71.3,211.4,67.3,209.6z"/>
<path class="st11" d="M159.7,172.7c-1.8,2.4-4.3,0.8-5.7-1.1c-0.3-0.4-1,0.2-0.7,0.6c1.8,2.4,5,3.6,7.1,0.9
	C160.6,172.6,160,172.3,159.7,172.7z"/>
<path class="st34" d="M115.6,362.6c-0.6-0.2-1.2,0.1-1.6,0.5c-0.6,1.2-1,2.2-1.6,3.3c-0.2,0.5,0.2,1,0.8,1.1c0.2,0,0.3,0.1,0.5,0.1
	c0.5,0,0.9-0.2,1.1-0.6c0.6-1.2,1.1-2.2,1.7-3.4C116.7,363.2,116.1,362.7,115.6,362.6z"/>
<path class="st34" d="M118,355.8c-0.5-0.1-1.3,0.1-1.5,0.6c-0.4,1.2-0.8,2.2-1.2,3.4c-0.2,0.5,0.4,1,0.9,1.1c0.1,0,0.2,0,0.4,0
	c0.5,0,0.9-0.2,1.2-0.6c0.5-1.2,0.8-2.2,1.2-3.5C119.2,356.4,118.6,355.9,118,355.8z"/>
<path class="st34" d="M215.8,338.1c-0.7-0.9-1.5-1.7-2.4-2.5c-0.4-0.3-0.9-0.2-1.2,0.1c0,0-0.1,0.1-0.1,0.1c-0.4,0.4-0.4,1,0,1.4
	c0.7,0.8,1.7,1.5,2.3,2.4c0.2,0.3,0.6,0.3,0.9,0.2c0.1,0,0.2-0.1,0.3-0.3C216.1,339.1,216.1,338.5,215.8,338.1z"/>
<path class="st34" d="M219.2,344c-0.4-1.2-0.9-2.3-1.5-3.4c-0.3-0.5-0.8-0.4-1.1-0.1c-0.4,0.4-0.5,1-0.2,1.4c0.6,1,1.1,2,1.6,3.1
	c0.1,0.3,0.4,0.5,0.7,0.5c0.2,0,0.2,0,0.3-0.1C219.3,345,219.4,344.5,219.2,344z"/>
<g>
	<g>
		<path class="st30" d="M233.1,357.6c-4.2-3.9-9.4-8.1-11.1-13.6c-1.4-4.5-3.1-7.9-6.7-10.9c2.3-1.7,4.5-3.5,6.7-5.2
			C226.7,340,224.5,346.3,233.1,357.6z"/>
		<path class="st30" d="M90.4,352.1c6.5,0.7,13,1.3,19.5,1.9l2.2,0.2c-2.1,7-4.1,12.8-9,18.6c-3.6,4.3-8.8,8-13.4,11.3
			c0-0.2,0-0.3,0-0.5c0.2-1.1,0.4-2.3,0.5-3.4c0.4-3.8,0.6-7.6,0.4-11.4C90.4,363.1,89.7,357.7,90.4,352.1z"/>
		<path class="st30" d="M107.1,375.7c-0.6-0.3-1.2-0.2-1.7,0.3c-1,1-2,2-3,2.9c-0.4,0.2-0.4,0.7-0.2,1.1c0.1,0.1,0.1,0.2,0.2,0.2
			c0.2,0.1,0.4,0.2,0.7,0.2c0.4,0,0.7-0.1,1-0.4c1.1-1,2.2-2,3.3-3.1c0.3-0.3,0.3-0.7,0.1-1C107.4,375.8,107.2,375.8,107.1,375.7z"
			/>
		<path class="st30" d="M100.7,381.6c-0.5-0.3-1.2-0.3-1.6,0c-1.2,0.9-2.4,1.7-3.6,2.5c-0.4,0.2-0.6,0.7-0.4,1.1
			c0,0.1,0.1,0.1,0.1,0.2c0.2,0.2,0.4,0.3,0.7,0.3c0.3,0,0.6-0.1,0.9-0.2c1.3-0.8,2.6-1.7,3.8-2.6C101,382.5,101.1,382,100.7,381.6z
			"/>
		<path class="st30" d="M91.7,386.5c-1.2,0.7-2.6,1.5-3.8,2.1c-0.5,0.2-0.7,0.7-0.5,1.2c0,0,0,0,0,0c0.2,0.4,0.4,0.4,0.7,0.4
			c0.3,0,0.5,0,0.8-0.1c1.3-0.7,2.7-1.4,4-2.2c0.5-0.3,0.7-0.8,0.4-1.3C92.9,386.2,92.2,386.2,91.7,386.5z"/>
		<path class="st30" d="M112.2,369.3c-0.6-0.2-1.2,0-1.6,0.4c-0.8,1.1-1.5,2.1-2.3,3.2c-0.3,0.3-0.2,0.8,0.1,1.1
			c0.1,0.1,0.2,0.1,0.3,0.2c0.2,0.1,0.4,0.1,0.6,0.1c0.4,0,0.8-0.2,1.1-0.5c0.9-1.1,1.8-2.2,2.6-3.3
			C113.2,370,112.8,369.5,112.2,369.3z"/>
		<path class="st30" d="M228.7,357.9c-1-1-2.3-2.4-3.2-3.3c-0.3-0.5-1-0.7-1.6-0.4c-0.5,0.3-0.5,0.8-0.1,1.4c0.8,1,2.2,2.4,3.2,3.4
			c0.3,0.3,0.8,0.5,1.3,0.5c0.3,0,0.3-0.1,0.4-0.2C229.2,358.8,229.2,358.4,228.7,357.9z"/>
		<path class="st30" d="M232.4,361.2c-0.4-0.5-1.2-0.5-1.7-0.1c-0.5,0.4-0.4,1,0.2,1.5c1,0.9,2.4,2.1,3.5,3c0.3,0.3,0.7,0.3,1.1,0.1
			c0.3-0.1,0.3-0.1,0.4-0.3c0.4-0.5,0.5-0.9-0.1-1.4C234.7,363.1,233.4,362,232.4,361.2z"/>
		<path class="st30" d="M222.6,351.1c-0.8-1-1.5-2.2-2-3.4c-0.2-0.6-0.6-0.8-1-0.5s-0.5,0.7-0.3,1.3c0.5,1.2,1,2.4,1.7,3.5
			c0.2,0.3,0.6,0.5,1,0.5c0.3,0,0.3,0,0.4-0.1c0.4-0.3,0.5-0.8,0.3-1.2C222.7,351.2,222.7,351.2,222.6,351.1z"/>
		<path class="st30" d="M177.5,352.7c0.3,1.5,0.6,2.9,1,4.4c0.9,4.1,1.9,8.3,2.8,12.5c2.7-0.9,5.4-1.9,8.1-3
			c-1.5-5.4-3.4-10.8-5.2-16.1C182,351.4,179.8,352.1,177.5,352.7z"/>
		<path class="st30" d="M109.9,354c-6.5-0.6-13-1.2-19.5-1.9c-0.5,4.4-0.5,8.8,0,13.2c0.8,0,1.6,0.1,2.4,0.3
			c4.1,1.7,8.1,3.4,12.3,4.8c3.5-5,5.4-10.3,7-16.1L109.9,354z"/>
		<path class="st30" d="M159.5,354.8c-4.7,0.1-9.2,0.1-14,0.2c-2.2,0-4.9,0.1-7.2,0.1c2,6.4,3.7,12.7,5.2,19.2
			c4.1-0.2,8.2-0.4,12.3-0.6c1.1-6.3,2.4-12.5,3.7-18.7C159.4,354.9,159.4,354.8,159.5,354.8z"/>
		<path class="st30" d="M157.3,373.6c2.4-0.2,4.7-0.4,7-0.6c-1.1-5.5-2.5-10.9-3.9-16.3C159.3,362.3,158.3,367.9,157.3,373.6z"/>
		<path class="st30" d="M129.9,374.4c1,0,2.1,0.1,3.1,0.1c2.8,0,5.6,0,8.4-0.1c-1.4-6.3-3.2-12.4-5.2-18.6
			C133.5,361.7,131.3,368,129.9,374.4z"/>
		<path class="st30" d="M161.4,354.7c1.8,6,3.3,12,4.6,18.1c4.7-0.6,9.4-1.5,13.9-2.8c-1.2-5.6-2.4-11.3-3.6-16.9
			C171.4,354,166.4,354.6,161.4,354.7z"/>
		<path class="st30" d="M113.9,354.3c-1.5,5.9-4,11.5-7.4,16.5c7,2,14.2,3.1,21.4,3.5c1.6-6.6,3.9-13.1,6.8-19.2
			C127.8,355.1,120.9,354.8,113.9,354.3z"/>
		<path class="st30" d="M200.5,342.7c-2.7,1.5-5.3,2.8-8.1,4.1c3.4,3.8,6.9,7.4,10.3,11c2-1.3,4-2.6,6.1-4
			c-1.9-4.2-3.7-8.5-5.5-12.8L200.5,342.7z"/>
		<path class="st30" d="M195.4,359.7c-1.5-4-3.1-8-4.5-12.1c-1.8,0.9-3.6,1.7-5.5,2.5c1.8,5.3,3.7,10.6,5.3,16
			c2.1-1,4.1-2.2,5.9-3.6C196.2,361.5,195.8,360.6,195.4,359.7z"/>
		<path class="st30" d="M204.6,340.4c1.7,4.3,3.5,8.5,5.3,12.7c1.1-0.8,2.2-1.6,3.3-2.4c-2.3-3.9-5-7.4-8.3-10.6L204.6,340.4z"/>
		<path class="st30" d="M193.3,350.1c1,2.8,2.2,5.6,3.3,8.4c0.4,1,0.9,2,1.3,2.9l0.5-0.4c1-0.8,2-1.5,3.1-2.3
			c-0.6-0.7-1.2-1.3-1.8-2C197.4,354.6,195.3,352.4,193.3,350.1z"/>
		<path class="st30" d="M220.8,345.4c-1.6-4.6-3.5-8-7.4-11c-2.3,1.6-4.6,3.3-7,4.8c3.1,3.2,5.7,6.9,7.8,10.8
			c2.2-1.5,4.6-2.5,7.2-3.1C221.2,346.5,221,346,220.8,345.4z"/>
	</g>
</g>
</svg>
